<svg xmlns="http://www.w3.org/2000/svg" version="1.1" xmlns:xlink="http://www.w3.org/1999/xlink" width="512" height="512" x="0" y="0" viewBox="0 0 64 64" style="enable-background:new 0 0 512 512" xml:space="preserve" fill-rule="evenodd"><g><path d="M61.95 16.37 36.6 34.206a7.986 7.986 0 0 1-9.2 0L2.06 16.374c-.04.292-.05.589-.05.89C2 24.924 2 39.062 2 46.726c0 .918.15 1.803.44 2.628l18.62-13.098c.9-.636 2.15-.418 2.78.484.64.903.42 2.152-.48 2.787L4.66 52.684a7.995 7.995 0 0 0 4.39 1.985l.01.001c15.36 1.769 30.65 1.768 45.89-.002l.01-.001a8.01 8.01 0 0 0 4.38-1.984l-18.7-13.156a1.999 1.999 0 0 1-.48-2.787 1.993 1.993 0 0 1 2.78-.484l18.61 13.096c.29-.824.44-1.706.44-2.621.01-7.66.01-21.799.01-29.463 0-.303-.02-.603-.05-.898zm-58.4-3.833L29.7 30.935c1.38.972 3.22.972 4.6 0l26.15-18.4a7.981 7.981 0 0 0-5.5-3.21l-.01-.001a199.348 199.348 0 0 0-45.89.002l-.01.001a7.985 7.985 0 0 0-5.49 3.21z" fill="#000000" opacity="1" data-original="#000000"></path></g></svg>
