<!-- Generator: Adobe Illustrator 21.0.1, SVG Export Plug-In  -->
<svg version="1.1"
	 xmlns="http://www.w3.org/2000/svg" xmlns:xlink="http://www.w3.org/1999/xlink" xmlns:a="http://ns.adobe.com/AdobeSVGViewerExtensions/3.0/"
	 x="0px" y="0px" width="209.1px" height="331.9px" viewBox="0 0 209.1 331.9" style="enable-background:new 0 0 209.1 331.9;"
	 xml:space="preserve">
<style type="text/css">
	.st0{fill:rgb(170, 197, 213);}
</style>
<defs>
</defs>
<g id="XMLID_1_">
	<path id="XMLID_60_" class="st0" d="M117.6,297.2c0.3,3.6-0.7,7-2.3,10.1c-2.9,5.5-6.9,10.1-12.2,13.5c-0.6,0.4-1.3,0.8-2,1
		c-3.5,1.1-7,1.8-10.9,1.9c-2.9-0.2-5.9-0.6-8.9-1.7c-3.4-1.3-5.9-3.7-7.7-6.8c-2.3-4-3.3-8.3-2.8-12.9c0.5-4.6,2.1-8.7,4.5-12.6
		c1.1-1.9,2.7-3.3,4.4-4.5c4.3-3.1,9.2-4.9,14.5-5.6c3.7-0.5,7.5-0.5,11.2,0c3,0.4,5.3,1.9,7.2,4.2
		C115.9,287.7,117.2,292.3,117.6,297.2z"/>
	<path id="XMLID_54_" class="st0" d="M115.7,32.3c-1.2,0.2-2.5,0.4-3.7,0.5c-8.1,1-15.5,3.7-22.7,7.4c-0.5,0.3-1.4,0.3-1.3,1.4
		c2.9-1.1,5.6-2.3,8.5-3.2c2.8-1,5.7-2,8.6-2.5c3.9-0.8,7.9-1.2,11.8-1.7c1.2-0.2,2.4-0.5,4.3-0.8C118.9,32.1,117.3,32.1,115.7,32.3
		z M115.3,29.6c1.2-0.1,2.4-0.1,3.4-1.2c-0.4-0.3-0.7-0.7-1-0.7c-3.4-0.4-6.7,0.3-10,0.8c-3.2,0.5-6.4,1-9.3,2.5
		c-0.5,0.3-0.8,0.8-1.7,1.5c2.4-0.5,4.2-1,6-1.3C106.9,30.6,111.1,30.1,115.3,29.6z M88.7,229c0.1,0.4,0.5,0.7,1.2,1.7
		c0.2-10.1,0-19.5-1.6-29c-1,1.9-1,1.9-0.9,3.5c0.4,6.8,0.7,13.7,1.1,20.5C88.4,226.8,88.5,227.9,88.7,229z M86.1,216.8
		c-0.2-4.9-0.5-9.7-0.8-14.6c0-0.5-0.2-1-1-0.8c0,0.7-0.1,1.4-0.1,2.2c0.1,7.4,0.1,14.7,0.2,22.1c0,2.3,0.3,4.5,0.5,6.7
		c0.1,0.8,0.2,1.7,1.6,2.2c0.1-0.6,0.3-1,0.3-1.3C85.8,227.8,86.2,222.3,86.1,216.8z M191.4,73.1c0.4,11.4-2.6,22-6.6,32.4
		c-1.3,3.4-3.3,6.4-5.4,9.4c-5.7,8.1-12.5,15.3-20.3,21.4c-7.7,6-15.7,11.6-23.5,17.4c-1.7,1.3-3.5,2.5-5.1,3.8
		c-4.5,3.8-7.7,8.4-9.9,13.9c-2.4,6.2-3.8,12.7-4.1,19.3c-0.2,4.9-0.6,9.7-0.9,14.6c-0.6,9.1-0.3,18.2,0.3,27.4
		c0.5,6.6,1,13.2,0.5,19.8c-0.3,3.6-0.3,3.6-3.9,4.1c-7.7,1-15.3,2-23,3.1c-5.4,0.7-5.8,0.5-6.8-4.7c-0.8-4.5-1.5-9.1-1.9-13.7
		c-1.1-12.7-0.9-25.5-0.6-38.2c0.2-10.1,0.9-20.2,2.8-30.2c0.9-4.8,2.1-9.5,4.1-14c1.7-3.8,4.1-6.9,7.6-9.1c1.8-1.2,3.6-2.3,5.4-3.3
		c4.8-2.7,9.6-5.4,14.4-8c6.5-3.4,12.5-7.3,18-12.2c2.4-2.1,4.9-4.3,7.3-6.4c5.4-4.7,9.8-10.3,13.7-16.3c4.1-6.4,6-13.4,6.1-20.9
		c0.1-5.1-0.3-10.3-1.5-15.3c-0.2-0.8-0.4-1.7-0.7-2.5c-6.2-15-16.4-25-33.2-26.6c-9.1-0.9-17.9,0.6-26.5,3.9
		c-13.1,5-25,12-35.3,21.5c-3.8,3.5-7.5,7-11.2,10.5c-4,3.8-7.1,8.1-9.2,13.1c-0.2,0.5-0.5,1-0.9,1.8c-1-0.7-1.8-1.1-2.6-1.8
		c-4.6-4-8.8-8.5-12.6-13.3c-1.4-1.8-2.8-3.5-4.3-5.3c-0.2-1.4,0.6-2.6,1.1-3.8c3.9-8.3,8.6-16.1,14.5-23.1c1.3-1.5,2.8-2.8,4.3-4.2
		c3.5-3.4,7-6.9,10.6-10.1c2.2-2,4.7-3.7,7.2-5.3c7.8-5,15.8-9.6,24.6-12.6c12.1-4,24.5-6.2,37.2-5.3c10.5,0.7,20.3,3.6,29.8,8.2
		c13,6.3,23,16,30.6,28C187.9,50.3,191,61.3,191.4,73.1z"/>
	<path id="XMLID_53_" d="M209,83.1c-0.5,5.1-1.1,10.2-2.6,15.1c-1.1,3.6-2.4,7.1-3.6,10.6c-0.4,1.2-1,2.3-1.7,3.3
		c-0.4,0.5-1.1,0.7-2.2,1.4c0.4-2.9,1.5-5,2.2-7.1c0.7-2.3,1.6-4.5,2.3-6.7c0.8-2.4,1.5-4.8,2.1-7.2c0.6-2.3,0.9-4.6,1.4-7
		c0.4-2.3,0.7-4.6,1.1-7.3C209.3,79.9,209.1,81.6,209,83.1z"/>
	<path id="XMLID_52_" d="M192.6,114.7c-0.9-1.3,0.1-2.4,0.6-3.4c4.8-8.3,6.3-17.5,7.7-26.8c0.6-3.9,1-7.9,1.5-11.8
		c0.1-0.5,0.2-1,0.3-1.4c0.2,0,0.5-0.1,0.7-0.1c0.2,0.5,0.4,1.1,0.4,1.6c0,3.1,0.1,6.2-0.1,9.3c-0.5,6-1.4,11.9-2.9,17.7
		c-1.2,4.5-2.8,8.8-5.3,12.7C194.1,114.7,193.1,115.4,192.6,114.7z"/>
	<path id="XMLID_51_" d="M135.7,285c3.6,9.2,2.8,18.1-1.5,26.8c-0.9,1.9-1.3,2-3.6,3.5c0.1-0.7,0-1.3,0.2-1.8
		c0.8-2.1,1.9-4.1,2.6-6.2c2.5-7.1,2.4-14.2,0.4-21.4c-0.4-1.4-0.8-2.9-1.2-4.3C134.5,282.3,135.2,283.6,135.7,285z"/>
	<path id="XMLID_50_" d="M127.4,309.1c1.9-6.1,1.9-12.3,1.8-18.6c-0.1-1.9-0.9-3.6-1.8-5.3c-0.6-1.1-1.2-2.1-1.8-3.2
		c0.2-0.2,0.4-0.3,0.6-0.5c3.2,2.2,5.2,5.4,5.5,9.2c0.6,6.2,0.5,12.5-1.5,18.6c-0.5,1.4-1.2,2.7-1.9,4c-0.2,0.3-0.9,0.6-1.3,0.5
		c-0.3-0.1-0.7-0.8-0.6-1.1C126.7,311.5,127.1,310.3,127.4,309.1z"/>
	<path id="XMLID_49_" d="M115.3,29.6c-4.2,0.5-8.4,1-12.6,1.6c-1.8,0.3-3.6,0.8-6,1.3c0.8-0.8,1.2-1.3,1.7-1.5
		c2.9-1.5,6.2-2,9.3-2.5c3.3-0.5,6.6-1.2,10-0.8c0.3,0,0.6,0.4,1,0.7C117.7,29.5,116.5,29.5,115.3,29.6z"/>
	<path id="XMLID_48_" d="M121.3,33.3c-1.9,0.4-3.1,0.7-4.3,0.8c-4,0.6-7.9,1-11.8,1.7c-2.9,0.6-5.8,1.6-8.6,2.5
		c-2.8,1-5.6,2.1-8.5,3.2c-0.1-1,0.8-1.1,1.3-1.4c7.1-3.7,14.6-6.5,22.7-7.4c1.2-0.2,2.5-0.4,3.7-0.5
		C117.3,32.1,118.9,32.1,121.3,33.3z"/>
	<path id="XMLID_47_" d="M88.2,201.6c1.7,9.5,1.8,18.9,1.6,29c-0.7-0.9-1.1-1.3-1.2-1.7c-0.2-1.1-0.3-2.2-0.3-3.3
		c-0.4-6.8-0.7-13.7-1.1-20.5C87.2,203.5,87.2,203.5,88.2,201.6z"/>
	<path id="XMLID_46_" d="M85.2,202.2c0.3,4.9,0.7,9.7,0.8,14.6c0.2,5.5-0.3,11,0.6,16.5c0,0.3-0.2,0.7-0.3,1.3
		c-1.4-0.5-1.5-1.4-1.6-2.2c-0.2-2.2-0.5-4.5-0.5-6.7c-0.1-7.4-0.2-14.7-0.2-22.1c0-0.7,0.1-1.5,0.1-2.2
		C85,201.2,85.2,201.7,85.2,202.2z"/>
	<path id="XMLID_38_" d="M72.7,322.6c-0.2,0.3-0.3,0.6-0.6,0.9c1.6,1.3,3.3,2,5.6,1.9c-1.4-1-2.8-1.9-4.3-2.9
		C73.3,322.6,73,322.6,72.7,322.6z M63.4,312.8c1.2-0.8,2.2-1.4,3.3-2.1c-0.3-2.4-0.5-4.7-0.8-7.1c-1.7,0.2-2.9,1.1-4.6,2.1
		C61.9,308.2,61.7,310.6,63.4,312.8z M67.3,313.3c-1.1,0.8-2,1.5-3.2,2.5c1.6,2.6,2.8,4.8,5.5,6.2c0.6-0.7,1.2-1.4,1.7-2.1
		c-0.8-1.3-1.4-2.3-2-3.4C68.6,315.6,68.4,314.3,67.3,313.3z M67.2,294.8c-1.6,0.4-2.9,0.6-3.7,1.9c-1.1,1.8-1.5,3.5-1.1,5.2
		c1.4-0.6,2.7-1.1,4.3-1.8C66.4,298.4,67.9,296.8,67.2,294.8z M66.1,292.1c2.1,0.1,3.2-0.5,4-2.1c0.5-1.1,1.3-2.1,1.8-3.2
		c0.2-0.3,0.8-0.7-0.2-1.3C69.6,287.3,67.4,289,66.1,292.1z M121.7,292.8c1.3,5.7,0.5,11.2-2.2,16.4c-2.9,5.7-7.1,10.6-11.8,14.9
		c-2.5,2.2-5.6,3.8-8.4,5.6c-0.5,0.3-1.1,0.5-1.7,0.7c-6.5,1.4-13.1,2.4-19.7,0.8c-4.1-1-8-2.9-11.4-5.5c-5.6-4.3-8.2-10.2-8.9-17.1
		c-0.1-1.1-0.1-2.2-0.2-3.4c-0.2-3.2,0.6-6.2,2-9c0.8-1.6,1.6-3.1,2.4-4.7c3.3-6.3,8.5-10.4,15.2-12.4c5.8-1.7,11.7-2.7,17.7-3
		c2.9-0.1,5.7-0.1,8.6-0.2c3.1-0.1,6,0.6,8.8,1.7c0.6,0.2,1.2,0.5,1.6,0.9c2.7,2.6,5.2,5.4,6.5,9.1
		C120.8,289.2,121.3,291,121.7,292.8z M115.3,307.3c1.6-3.1,2.7-6.5,2.3-10.1c-0.4-4.9-1.7-9.5-5-13.5c-1.9-2.3-4.2-3.8-7.2-4.2
		c-3.7-0.5-7.5-0.4-11.2,0c-5.3,0.6-10.2,2.4-14.5,5.6c-1.7,1.3-3.3,2.7-4.4,4.5c-2.4,3.9-4,8-4.5,12.6c-0.5,4.7,0.5,8.9,2.8,12.9
		c1.8,3.1,4.3,5.5,7.7,6.8c2.9,1.1,6,1.5,8.9,1.7c3.9-0.2,7.5-0.8,10.9-1.9c0.7-0.2,1.4-0.6,2-1
		C108.4,317.4,112.4,312.8,115.3,307.3z"/>
	<path id="XMLID_37_" d="M70.1,152.3c3.9-3.3,7.7-6.8,12.2-9.3c5.9-3.3,11.9-6.4,17.8-9.5c0.5-0.3,1.1-0.4,1.6-0.6
		c0.1,0.1,0.1,0.2,0.2,0.4c-0.6,0.5-1.2,1.1-1.9,1.5c-3.6,2.3-7,4.7-10.7,6.8c-6,3.4-11.5,7.5-16.7,11.9c-0.8,0.6-1.6,1.2-2.4,1.7
		c-0.2,0.1-0.7-0.1-0.9-0.3c-0.2-0.1-0.3-0.5-0.2-0.7C69.3,153.5,69.6,152.7,70.1,152.3z"/>
	<path id="XMLID_36_" d="M67.6,150.2c0.5-1,1.1-2,1.8-2.8c4.4-4.4,9.4-8.2,14.7-11.5c3-1.9,6.6-2.7,10.1-3.6
		c-0.7,1.6-2.1,2.2-3.4,2.8c-7.4,3.3-13.3,8.7-19.4,13.9c-0.8,0.7-1.7,1.5-2.5,2.2c-0.3,0.2-0.7,0.3-1,0.5
		C67.1,151.3,67.3,150.6,67.6,150.2z"/>
	<path id="XMLID_4_" d="M153.8,72.6c-1.2,1.3-2.3,2.6-3.4,3.9c1.3,2.4,2.5,4.6,4,6.7c0.3-0.1,0.6-0.2,0.8-0.2c0-1.7,0-3.4,0-5.1
		C155.1,74.9,155,74.7,153.8,72.6z M143.3,67.4c2-2.9,3.9-5.8,5.9-8.6c-1.8-2.5-3.2-4.9-5.7-6.6c-3.6,7.1-5.1,10.6-5.5,13.3
		c1.3,1,2.6,2,4.3,3.4C142.8,68.2,143.1,67.8,143.3,67.4z M148,74.3c2.3-1.8,4.1-3.8,5.8-5.9c-0.8-2.6-1.3-5.1-3.5-7.4
		c-1.8,3.6-4.2,6.3-5.9,9.8C145.7,72,146.8,73.1,148,74.3z M132.3,44.5c-1.3,4.3-2.5,8.3-3.7,12.4c-0.2,0.7-0.4,1.4-0.5,2.2
		c-0.1,0.2,0,0.5,0.1,1.1c2.5,1.1,4.8,2.1,7.3,3.3c2.2-4.5,4.6-8.7,6.3-13.5C139,47.3,135.8,45.8,132.3,44.5z M124.8,59.1
		c2.4-5.3,4.5-12.3,4.6-15.4c-3.3-0.9-6.6-1.6-10.2-0.9c-0.6,2.6-0.7,5.2-0.8,7.8c-0.2,2.5-1.3,5-0.5,7.7
		C120.2,58.6,122.4,58.9,124.8,59.1z M107.6,262.4c-0.2,1.2-0.3,2.2-0.6,3.7c2.6-0.5,3.1-2,3.8-3.7
		C109.7,262.4,108.8,262.4,107.6,262.4z M114.1,58.5c1.8-6.9,2.5-12.8,1.8-15.6c-3.7,0.2-7.4,0.4-10.8,1.8c-0.1,0.4-0.3,0.7-0.3,0.9
		c0,4.2,0.1,8.5,0.2,12.7c0,0.3,0,0.5,0.1,0.7c0,0.1,0.1,0.2,0.2,0.3c0.1,0.1,0.1,0.2,0.3,0.4C108.4,59.6,111.3,59.1,114.1,58.5z
		 M94.3,56.1c0.4,2.2-0.2,4.7,1.3,6.8c2.3-0.9,4.6-1.3,6.7-2.4c0.1-5,1-9.9,0.2-15.1c-3.4,1-6.3,2.2-9.3,3.8
		C93.5,51.8,93.8,54,94.3,56.1z M88.8,265.1c0,0.1,0.2,0.5,0.4,0.5c1.7,0.5,3.4,0.6,5-0.1c0.4-0.2,0.5-0.9,0.9-1.6
		c-2.2-0.2-4-0.3-5.8,0.3C89.1,264.3,88.9,264.7,88.8,265.1z M98.7,263.5c-1.1,0.2-1.1,0.3-1.1,2.4c2.1,0.4,4.1,0.7,6.3,0.1
		c0.3-0.9,0.6-1.7,0.9-2.6C102.6,262.8,100.7,263.1,98.7,263.5z M86.2,265.1c-0.6-1.3-1.6-1.1-2.5-1c-0.6,0.1-1.1,0.5-0.9,1.4
		C84,266,85.1,266.3,86.2,265.1z M72.8,258c1.8-0.9,3.2-1.5,4.4-2.9c-0.3-1.7-0.7-3.4-1-5.1c-2.3,0.4-2.3,0.4-4.5,2.2
		C71.8,254,71.9,255.8,72.8,258z M81.3,55.4c0.9,4.3,1.7,8.4,2.7,13c2.8-1.4,5.3-2.7,7.7-3.9c0.2-0.1,0.3-0.4,0.4-0.6
		c-0.1-7.3-0.6-11.3-1.8-13.7C87.2,51.8,84,53.2,81.3,55.4z M75.3,169.5c0.6-0.1,1.2-0.2,1.8-0.4c0.5-0.2,0.9-0.4,1.4-0.7
		c0.5-2,1-4,1.8-6.8C76.7,164.8,75.3,166.9,75.3,169.5z M74.3,219.5c-1.9,0.6-3.7,1.3-5.2,2.7c-0.2,4,0.1,8,0.7,12.4
		c2-1,3.6-1.7,5-2.4C75.1,226.7,75,222.2,74.3,219.5z M77.4,171.5c-1.5,0.4-2.7,0.8-4,1.2c-0.8,2.3-1.8,4.3-1.8,7.2
		c2-1.1,3.8-1.3,5.2-2.5C77.1,175.5,78,173.7,77.4,171.5z M79.2,57C76,58.3,73,60.5,71,62.9c0.9,4,1.7,8.2,2.7,12.7
		c2.9-1.9,5.4-3.4,7.7-5.4C80.8,65.7,80.3,61.3,79.2,57z M70.4,193c2-0.4,3.3-1.5,5.1-2.3c0.3-2.5,0.5-4.7,0.7-7
		c0-0.5-0.2-1.1-0.3-1.8c-1.9,0.3-3.4,0.7-4.9,1.8C70.8,186.7,70,189.7,70.4,193z M74.8,205.3c-1.9-0.3-3,1.1-4.4,1.9
		c-1,0.5-1.4,1.4-1.4,2.4c0,2.4,0,4.7,0,7.1c0,0.6,0.2,1.1,0.3,2c1-0.4,1.7-0.6,2.3-1c1.1-0.6,2.1-1.2,3.2-1.8
		C74.8,212.3,74.8,208.8,74.8,205.3z M77.6,258c-1.6,1-3.1,1.9-4.2,3.1c-0.1,1.3-0.1,2.4,1.1,3.1c1.8-0.5,3.3-1.6,4.8-3.1
		C78.7,260.1,78.2,259.2,77.6,258z M69.6,204.8c2.1-0.7,3.7-1.6,5.3-2.9c0.1-1.3,0.2-2.5,0.2-3.7c0-1.3,0.5-2.6-0.3-4.1
		c-1.7,1-3.5,1.5-5,2.7C69.7,199.4,69.3,202,69.6,204.8z M71.3,77.5c-1-4.3-1.1-8.6-2.4-13c-2.8,1.7-4.9,4-7.5,6.2
		c0.4,2.4,0.7,4.7,1.1,6.8c0.5,2.2,0,4.7,1.4,7.1C66.4,82.2,68.8,79.9,71.3,77.5z M61.1,87.7c-0.3-2.5-0.5-4.9-0.9-7.2
		c-0.4-2.4,0.2-4.9-1.2-7.4c-2.7,2.2-4.9,4.4-7,7c0.5,2.3,1,4.6,1.5,6.9c0.5,2.3,0.3,4.7,1.3,6.9c0.4-0.2,0.8-0.3,1-0.6
		C57.7,91.5,59.4,89.5,61.1,87.7z M50.6,82.8c-0.4,0-0.5,0-0.6,0c-2.2,2.3-3.7,4.9-3.9,8.2c-0.3,4.2-0.5,8.5-1.8,12.5
		c-0.1,0.4,0,0.9,0.1,1.9c1.8-1.4,2.7-3.1,4-4.4c1.4-1.4,2.7-2.9,4.1-4.4C51.8,92,52,87.3,50.6,82.8z M37.3,41.8
		c-5.8,7.1-10.6,14.9-14.5,23.1c-0.6,1.2-1.3,2.4-1.1,3.8c1.4,1.8,2.8,3.6,4.3,5.3c3.9,4.8,8,9.3,12.6,13.3c0.7,0.6,1.6,1.1,2.6,1.8
		c0.4-0.8,0.7-1.3,0.9-1.8c2.2-5,5.3-9.4,9.2-13.1c3.7-3.5,7.4-7.1,11.2-10.5c10.4-9.5,22.2-16.5,35.3-21.5
		c8.6-3.3,17.4-4.8,26.5-3.9c16.8,1.6,27,11.7,33.2,26.6c0.3,0.8,0.5,1.7,0.7,2.5c1.3,5,1.6,10.1,1.5,15.3c-0.1,7.5-2,14.6-6.1,20.9
		c-3.9,6-8.3,11.6-13.7,16.3c-2.4,2.1-4.9,4.3-7.3,6.4c-5.5,4.8-11.5,8.8-18,12.2c-4.9,2.6-9.7,5.3-14.4,8c-1.9,1-3.6,2.2-5.4,3.3
		c-3.4,2.2-5.9,5.3-7.6,9.1c-2,4.5-3.1,9.2-4.1,14c-1.9,10-2.6,20.1-2.8,30.2c-0.3,12.8-0.6,25.5,0.6,38.2c0.4,4.6,1,9.2,1.9,13.7
		c1,5.2,1.4,5.4,6.8,4.7c7.7-1,15.4-2,23-3.1c3.6-0.5,3.6-0.5,3.9-4.1c0.4-6.6-0.1-13.2-0.5-19.8c-0.6-9.1-0.9-18.2-0.3-27.4
		c0.3-4.9,0.7-9.7,0.9-14.6c0.3-6.7,1.7-13.1,4.1-19.3c2.1-5.5,5.4-10.1,9.9-13.9c1.6-1.4,3.4-2.6,5.1-3.8
		c7.8-5.8,15.8-11.4,23.5-17.4c7.8-6.1,14.6-13.3,20.3-21.4c2.1-3,4.1-6,5.4-9.4c4.1-10.4,7-21.1,6.6-32.4
		c-0.4-11.8-3.5-22.8-9.8-32.7c-7.6-12-17.6-21.7-30.6-28c-9.5-4.6-19.3-7.5-29.8-8.2C108.5,3.4,96.1,5.6,84,9.6
		c-8.8,2.9-16.8,7.6-24.6,12.6c-2.5,1.6-5,3.3-7.2,5.3c-3.6,3.2-7.1,6.7-10.6,10.1C40.1,39,38.6,40.3,37.3,41.8z M23,89.5
		c1.3-2.8,2.5-5.6,3.4-8.6c-1.5-2.3-2.7-4.7-5.4-6.1c-0.8,3.6-0.7,6.9-0.9,10.2C19.9,87.2,20.8,88.6,23,89.5z M25,52.6
		c5.8-7.5,11.8-14.9,18.4-21.7c4.9-5,10.4-9.4,16.3-13.1c8.5-5.4,17.2-10.2,26.9-13C95,2.4,103.4,0.5,112,0.1
		C125-0.5,137.5,1.6,149.3,7c4.6,2.1,8.9,4.5,13.2,7.1c6.1,3.6,10.8,8.8,15.5,14c9.5,10.4,14.9,22.7,17.2,36.5
		c1.6,9.5,1.1,18.9-1.3,28.3c-0.5,1.8-0.9,3.6-1.4,5.4c-2.1,7.6-5.4,14.5-10,20.8c-5.8,8-12.3,15.1-20,21.2
		c-7.7,6-15.6,11.7-23.4,17.5c-1.5,1.1-3.1,2.2-4.5,3.3c-4.1,3.4-7.2,7.6-9.1,12.6c-2.1,5.7-3.4,11.4-3.6,17.5c-0.1,5-0.7,10-1,15
		c-0.4,7.4-0.4,14.7,0.1,22.1c0.5,7.5,1.1,15,0.9,22.5c-0.1,2.4-0.2,4.8-0.8,7.1c-0.4,1.6-1.4,3.2-2.4,4.6c-1,1.4-2.2,2.7-3.4,4
		c-2.5,2.7-5.5,4.3-9.2,4.5c-3.5,0.2-7,0.1-10.5,0.1c-2.9,0-5.7,0-8.6,0c-3.9,0-7.7-0.1-11.6-0.2c-2.1,0-3.4-1.2-4.4-2.9
		c-1.5-2.4-2.2-5-2.7-7.8c-2.6-15.6-3.5-23.3-3.6-42.1c0.1-10.3,0.5-20.9,1.8-31.4c0.5-4.5,1.2-8.9,2.5-13.2
		c2.1-7.1,6-12.9,11.7-17.5c2-1.6,3.8-3.3,5.3-5.3c2.2-2.8,5-4.9,8.1-6.6c5.4-3.1,10.8-6.4,16.4-9.1c11.6-5.7,21.3-14,30.4-22.9
		c4.1-4,7.5-8.7,10.3-13.8c0.8-1.5,1.4-2.9,0.6-4.6c-0.4-0.9-0.5-1.9-0.5-2.9c-0.3-4.5-2.3-8.2-5.2-11.4c-4-4.5-8.3-8.6-13.5-11.8
		c-4.7-2.8-9.8-4.4-15.3-4.3C106.3,63.4,96.3,66.5,87,72c-3.8,2.2-7.3,4.8-10.9,7.3c-5.6,3.9-10,9.1-14.7,13.8
		c-2.6,2.6-5.2,5.1-7.7,7.7c-2.1,2.2-4.1,4.4-6.1,6.6c-3.3,3.8-5.1,4.6-10.4,1.6c-1.4-0.8-2.7-1.9-3.8-3c-3.4-3.5-6.8-7-10.2-10.5
		c-1.9-2-3.8-4-5.8-5.9c-2-1.8-3.1-3.8-2.8-6.6c0.2-2.4,0.2-4.8,0.2-7.1c-0.1-3.1,0.7-6,1.9-8.7C18.9,62.1,21.5,57.1,25,52.6z
		 M33.3,89.1c-0.8,2.8-1.6,5.5-2.3,8c0.3,0.4,0.4,0.8,0.7,1c1.9,1.6,3.8,3.3,5.7,4.8c0.3,0.2,0.6,0.3,1.3,0.7
		c0.9-3.4,1.7-6.3,1.5-9.3c-2-1.7-3.8-3.2-5.6-4.7C34.3,89.4,33.8,89.3,33.3,89.1z M27.9,83c-1.5,2.8-2.3,5.6-3.1,8.5
		c1.3,1.2,2.2,2.4,4,3.4c1.1-2.8,2.2-5.4,2.6-8.2C30.4,85.3,29.4,84.1,27.9,83z M75.7,245.5c-0.3-3.1-0.2-6.3-1-9.5
		c-1.9,0.4-3.4,1.3-4.9,2.6c0.1,1.4,0.2,3,0.4,4.6c0.3,1.6-0.2,3.5,1.4,5C72.9,247.3,74.6,247,75.7,245.5z"/>
	<path id="XMLID_3_" d="M6.2,75.7c1.5-10.9,6.1-20.4,13.1-28.9c0.8-1,1.6-2.1,3.4-2.8c-0.4,0.9-0.5,1.3-0.7,1.7
		c-1.7,2.8-3.4,5.5-5.1,8.3c-4,6.3-6.9,13-8,20.3c-0.2,1.1-0.5,2.2-0.8,3.3c-0.1,0.3-0.7,0.5-1.1,0.8c-0.3-0.4-0.6-0.7-0.7-1.2
		C6,76.7,6.1,76.2,6.2,75.7z"/>
	<path id="XMLID_2_" d="M2.1,71.3c-0.3,0.9-0.7,1.8-1.3,3.2c-0.4-0.9-0.7-1.3-0.7-1.7c0-1-0.1-2,0.1-3C2,62.3,4.5,55,9.7,49
		c1.6-1.9,3.2-3.8,5.3-5.2c0.2,0.1,0.4,0.3,0.6,0.4c-0.3,0.5-0.4,1.1-0.8,1.5c-1.3,1.8-2.6,3.7-3.9,5.5C8.3,54.8,6.3,58.6,5,62.8
		C4.1,65.7,3.1,68.5,2.1,71.3z"/>
</g>
</svg>
