<?xml version="1.0" encoding="utf-8"?><svg viewBox="0 0 1625.1 752" xmlns="http://www.w3.org/2000/svg" xmlns:xlink="http://www.w3.org/1999/xlink"><style>:root>svg{display:none}:root>svg:target{display:block}</style><svg viewBox="0 0 448.011 448.011" id="arrow" xmlns="http://www.w3.org/2000/svg"><path d="M438.731 209.463l-416-192c-6.624-3.008-14.528-1.216-19.136 4.48a15.911 15.911 0 00-.384 19.648l136.8 182.4-136.8 182.4c-4.416 5.856-4.256 13.984.352 19.648 3.104 3.872 7.744 5.952 12.448 5.952 2.272 0 4.544-.48 6.688-1.472l416-192c5.696-2.624 9.312-8.288 9.312-14.528s-3.616-11.904-9.28-14.528z" data-original="#fff"/></svg><svg viewBox="0 0 490.688 490.688" id="arrow-b" xmlns="http://www.w3.org/2000/svg"><path d="M472.328 120.529L245.213 347.665 18.098 120.529c-4.237-4.093-10.99-3.975-15.083.262-3.992 4.134-3.992 10.687 0 14.82l234.667 234.667c4.165 4.164 10.917 4.164 15.083 0l234.667-234.667c4.237-4.093 4.354-10.845.262-15.083-4.093-4.237-10.845-4.354-15.083-.262-.089.086-.176.173-.262.262l-.021.001z"/><path d="M245.213 373.415a10.663 10.663 0 01-7.552-3.115L2.994 135.633c-4.093-4.237-3.975-10.99.262-15.083 4.134-3.992 10.687-3.992 14.82 0l227.136 227.115 227.115-227.136c4.093-4.237 10.845-4.354 15.083-.262 4.237 4.093 4.354 10.845.262 15.083-.086.089-.173.176-.262.262L252.744 370.279a10.672 10.672 0 01-7.531 3.136z"/></svg><svg viewBox="0 0 24 24" id="arrow-right" xmlns="http://www.w3.org/2000/svg"><path d="M5 12h14m-7-7l7 7-7 7"/></svg><svg viewBox="0 0 35 26" id="comment" xmlns="http://www.w3.org/2000/svg"><path d="M5.5 26c.8-3.6 2-15-5-25.5C6 2 27.5 18 34.5 26h-29z"/></svg><svg viewBox="0 0 35 26" id="comment-blue" xmlns="http://www.w3.org/2000/svg"><path d="M5.5 26c.8-3.6 2-15-5-25.5C6 2 27.5 18 34.5 26h-29z"/></svg><svg viewBox="0 0 92 102" id="dot" xmlns="http://www.w3.org/2000/svg"><path d="M0 0h1.5v1.5H0zm10 0h1.5v1.5H10zm9.999 0h1.5v1.5h-1.5zM30 0h1.5v1.5H30zm10 0h1.5v1.5H40zm10 0h1.5v1.5H50zm10 0h1.5v1.5H60zm10.001 0h1.5v1.5h-1.5zM80 0h1.5v1.5H80zm10 0h1.5v1.5H90zM0 10h1.5v1.5H0zm10 0h1.5v1.5H10zm9.999 0h1.5v1.5h-1.5zM30 10h1.5v1.5H30zm10 0h1.5v1.5H40zm10 0h1.5v1.5H50zm10 0h1.5v1.5H60zm10.001 0h1.5v1.5h-1.5zM80 10h1.5v1.5H80zm10 0h1.5v1.5H90zM0 20h1.5v1.5H0zm10 0h1.5v1.5H10zm9.999 0h1.5v1.5h-1.5zM30 20h1.5v1.5H30zm10 0h1.5v1.5H40zm10 0h1.5v1.5H50zm10 0h1.5v1.5H60zm10.001 0h1.5v1.5h-1.5zM80 20h1.5v1.5H80zm10 0h1.5v1.5H90zM0 30h1.5v1.5H0zm10 0h1.5v1.5H10zm9.999 0h1.5v1.5h-1.5zM30 30h1.5v1.5H30zm10 0h1.5v1.5H40zm10 0h1.5v1.5H50zm10 0h1.5v1.5H60zm10.001 0h1.5v1.5h-1.5zM80 30h1.5v1.5H80zm10 0h1.5v1.5H90zM0 40h1.5v1.5H0zm10 0h1.5v1.5H10zm9.999 0h1.5v1.5h-1.5zM30 40h1.5v1.5H30zm10 0h1.5v1.5H40zm10 0h1.5v1.5H50zm10 0h1.5v1.5H60zm10.001 0h1.5v1.5h-1.5zM80 40h1.5v1.5H80zm10 0h1.5v1.5H90zM0 50h1.5v1.5H0zm10 0h1.5v1.5H10zm9.999 0h1.5v1.5h-1.5zM30 50h1.5v1.5H30zm10 0h1.5v1.5H40zm10 0h1.5v1.5H50zm10 0h1.5v1.5H60zm10.001 0h1.5v1.5h-1.5zM80 50h1.5v1.5H80zm10 0h1.5v1.5H90zM0 60h1.5v1.5H0zm10 0h1.5v1.5H10zm9.999 0h1.5v1.5h-1.5zM30 60h1.5v1.5H30zm10 0h1.5v1.5H40zm10 0h1.5v1.5H50zm10 0h1.5v1.5H60zm10.001 0h1.5v1.5h-1.5zM80 60h1.5v1.5H80zm10 0h1.5v1.5H90zM0 70h1.5v1.5H0zm10 0h1.5v1.5H10zm9.999 0h1.5v1.5h-1.5zM30 70h1.5v1.5H30zm10 0h1.5v1.5H40zm10 0h1.5v1.5H50zm10 0h1.5v1.5H60zm10.001 0h1.5v1.5h-1.5zM80 70h1.5v1.5H80zm10 0h1.5v1.5H90zM0 80h1.5v1.5H0zm10 0h1.5v1.5H10zm9.999 0h1.5v1.5h-1.5zM30 80h1.5v1.5H30zm10 0h1.5v1.5H40zm10 0h1.5v1.5H50zm10 0h1.5v1.5H60zm10.001 0h1.5v1.5h-1.5zM80 80h1.5v1.5H80zm10 0h1.5v1.5H90zM0 90h1.5v1.5H0zm10 0h1.5v1.5H10zm9.999 0h1.5v1.5h-1.5zM30 90h1.5v1.5H30zm10 0h1.5v1.5H40zm10 0h1.5v1.5H50zm10 0h1.5v1.5H60zm10.001 0h1.5v1.5h-1.5zM80 90h1.5v1.5H80zm10 0h1.5v1.5H90zM0 100h1.5v1.5H0zm10 0h1.5v1.5H10zm9.999 0h1.5v1.5h-1.5zM30 100h1.5v1.5H30zm10 0h1.5v1.5H40zm10 0h1.5v1.5H50zm10 0h1.5v1.5H60zm10.001 0h1.5v1.5h-1.5zM80 100h1.5v1.5H80zm10 0h1.5v1.5H90z"/></svg><svg viewBox="0 0 768 583.58" id="icon" xmlns="http://www.w3.org/2000/svg"><defs><linearGradient id="gПеро" x1="587.18" y1="65.57" x2="183.42" y2="332.25" gradientUnits="userSpaceOnUse"><stop offset="0" stop-color="#9b9b9b"/><stop offset=".13" stop-color="#8b8b91"/><stop offset="1" stop-color="#060942"/></linearGradient><style>.gcls-2{fill:#fff}</style></defs><g id="gСлой_2" data-name="Слой 2"><g id="gСлой_1-2" data-name="Слой 1"><path d="M3.73 580.48c.79 0-4.31-3.31-3.67-4.57 4.09-8.07 12-22 12-31.13 0-5.57-3.66-12.81-3.66-12.81-.52-1-.43-4.06.36-4.91l37.05-39.9L43.92 477a3.33 3.33 0 013-3.94l7.81-.68 38.37-62s-9-111.21 8.73-146.63c0 12.81 2.75 36.61 8.24 43-.92-19.22-.17-42.75 6.27-57.66s62.24-49.43 62.24-49.43l5.49 43s.92-48.51 21.19-62.54C225.31 166.3 279 133 279 133l-21.62 62.17s31.61-62.82 42.28-74 66.51-40.44 66.51-40.44l-5.49 23.8s8.24-18.31 15.73-27.63c6.35-7.9 50.19-23.62 50.19-23.62s.92 14.25-1.83 21-10.85 18.31-10.85 18.31S453 54.3 465 47.37s70.84-23.61 70.84-23.61L523.76 45s22.54-19.84 33.73-24.71 46.82-8.24 46.82-8.24L591.5 31.29s24-25.24 68.28-28.19c35-2.33 83-2.92 101.47-2.92 6.77 0 7.86-.76 5.85.91 0 0-22.61 22.88-31.9 26.54s-42.1 8.24-42.1 8.24l31.61-.3s-38.8 24.1-46.26 26.85-83.29 13.73-83.29 13.73l69.56-2.75s-61.41 42.94-66.93 44.81-59.38 7.36-59.38 7.36 30.49 1.16 35.77 1.49S510.81 175 489.9 181.4c-15.14 2.69-28.51-6.41-61.46 1.83 15.56 1.83 48.34 8.77 48.34 8.77s-34.78 34.6-50 38.83c-8.19 2.27-20.28-3.66-36.75 1.83a110 110 0 0121.19 9.15s-23 26.54-42.24 33.87c-19.22 4.58-70.48 3.66-70.48 3.66s4.71 11 57.8 8.24c-3.66 12.81-22.65 29.37-34.92 33-15.7 4.58-53.09 11.9-84.21 14.64 12.81 5.49 75.76-1.06 75.76-1.06s-62 72.46-92.33 77.07c-18.07.88-53.69-3.72-53.69-3.72A78.45 78.45 0 00197 420.3c-15.56 5.49-72.21 5.35-72.21 5.35a4 4 0 00-3 1.74l-40.5 59.76 2.84 9.6a3.42 3.42 0 01-3 4.38l-8.55.63L52.3 553.4a2.79 2.79 0 01-2.25 1.88s-8.82-2.63-13.23-.43c-5.49 2.75-6.47 5.28-9.15 8.24-2.22 2.45-11.78 15-15.7 20.14-.69.91-4.69-.11-5.49-.92l32-50.34c13.69.86 6.41-12.81 6.41-12.81s-15-.62-9.15 11c-2.12 3.02-32.58 50.32-32.01 50.32z"/><path class="gcls-2" d="M646.95 34C266.64 141.59 158.63 327.4 74.88 461.49c-3.66 6.41 3.66 11 8.24 3.66C166 348.45 252 176.37 647.41 34.5M80.61 493.52c-2.75-1.83-20.14-10.07-24-11.79a2.3 2.3 0 00-2.85.58l-.62 1.14c-.81 1.07.17 2.39 1.36 3l21.72 12.17c4.39 2.23 7.63-2.94 4.39-5.1zm-30.2 52.18c2.72-5 14.06-32.7 17.39-39.36 1.83-3.66 1.83-4.58.92-5.49-1.45-1.45-4.58-2.75-6.58 1.23l-18.27 39.28c-3.33 7.93 3.34 10.17 6.54 4.34z"/></g></g></svg><svg viewBox="0 0 24 24" id="icon-computer" xmlns="http://www.w3.org/2000/svg"><g clip-path="url(#ha)"><path d="M0 15.983a1.336 1.336 0 001.32 1.321h21.36A1.336 1.336 0 0024 15.983v-1.137H0v1.137zM22.68.797H1.32C.604.797 0 1.352 0 2.07v11.956h24V2.07c0-.718-.602-1.273-1.32-1.273zm-5.11 21.249h-2.702v-3.922H9.132v3.922H6.738a.585.585 0 100 1.17H17.57a.585.585 0 100-1.17z"/></g><defs><clipPath id="ha"><path d="M0 0h24v24H0z"/></clipPath></defs></svg><svg viewBox="0 0 20 20" id="icon-inst" xmlns="http://www.w3.org/2000/svg"><rect width="20" height="20" rx="10"/><path d="M9.667 6.605A3.145 3.145 0 006.522 9.75a3.128 3.128 0 003.145 3.145A3.145 3.145 0 0012.81 9.75a3.163 3.163 0 00-3.144-3.145zm0 5.196A2.048 2.048 0 017.616 9.75c0-1.121.902-2.023 2.05-2.023 1.122 0 2.024.902 2.024 2.023 0 1.148-.902 2.05-2.023 2.05zm3.992-5.305a.735.735 0 00-.738-.738.735.735 0 00-.739.738c0 .41.329.738.739.738s.738-.328.738-.738zm2.078.738c-.055-.984-.273-1.859-.984-2.57-.711-.71-1.586-.93-2.57-.984-1.012-.055-4.047-.055-5.06 0-.984.054-1.831.273-2.57.984-.71.711-.93 1.586-.984 2.57-.055 1.012-.055 4.047 0 5.059.055.984.274 1.832.984 2.57.739.711 1.586.93 2.57.985 1.013.054 4.048.054 5.06 0 .984-.055 1.859-.274 2.57-.985.71-.738.93-1.586.984-2.57.055-1.012.055-4.047 0-5.059zm-1.312 6.125c-.192.547-.63.957-1.149 1.176-.82.328-2.734.246-3.61.246-.902 0-2.816.082-3.609-.246a2.073 2.073 0 01-1.175-1.176c-.329-.793-.246-2.707-.246-3.609 0-.875-.083-2.79.246-3.61a2.11 2.11 0 011.175-1.148c.793-.328 2.707-.246 3.61-.246.875 0 2.789-.082 3.61.246.519.192.929.63 1.148 1.149.328.82.246 2.734.246 3.609 0 .902.082 2.816-.246 3.61z"/><defs><linearGradient id="ia" x1="17.333" y1="3" x2="3.333" y2="17" gradientUnits="userSpaceOnUse"><stop stop-color="#9000DC"/><stop offset=".505" stop-color="#F61F87"/><stop offset="1" stop-color="#FEDA16"/></linearGradient></defs></svg><svg viewBox="0 0 20 20" id="icon-tlgr" xmlns="http://www.w3.org/2000/svg"><g clip-path="url(#ja)"><path d="M10 0a9.999 9.999 0 00-7.07 17.071A9.999 9.999 0 1017.07 2.93 9.999 9.999 0 0010 0z"/><path d="M4.526 9.894c2.916-1.27 4.86-2.107 5.832-2.512 2.778-1.155 3.354-1.355 3.731-1.362.083-.001.267.019.387.116a.43.43 0 01.143.271c.012.078.03.255.015.394-.15 1.581-.801 5.418-1.133 7.19-.139.749-.415 1-.682 1.024-.582.054-1.022-.383-1.585-.752-.88-.577-1.376-.936-2.231-1.499-.987-.65-.347-1.008.216-1.593.147-.153 2.706-2.48 2.754-2.691.007-.026.013-.125-.046-.177-.058-.052-.144-.034-.207-.02-.089.02-1.494.95-4.219 2.788-.398.274-.759.408-1.084.4-.356-.007-1.044-.201-1.555-.367-.625-.204-1.123-.311-1.08-.657.023-.18.271-.364.744-.553z"/></g><defs><linearGradient id="jb" x1="10" y1="0" x2="10" y2="20" gradientUnits="userSpaceOnUse"><stop stop-color="#2AABEE"/><stop offset="1" stop-color="#229ED9"/></linearGradient><clipPath id="ja"><path d="M0 0h20v20H0z"/></clipPath></defs></svg><svg viewBox="0 0 24 24" id="icon-video" xmlns="http://www.w3.org/2000/svg"><path fill-rule="evenodd" clip-rule="evenodd" d="M6.113 4.5h5.792c2.422 0 4.113 1.669 4.113 4.06v6.88c0 2.391-1.69 4.06-4.113 4.06H6.113C3.691 19.5 2 17.831 2 15.44V8.56C2 6.17 3.691 4.5 6.113 4.5zm13.845 2.379c.439-.223.954-.2 1.373.064.419.263.669.72.669 1.22v7.675c0 .5-.25.957-.669 1.22a1.385 1.385 0 01-1.374.063l-1.481-.748a1.623 1.623 0 01-.888-1.457V9.083c0-.621.34-1.18.888-1.456l1.482-.748z"/></svg><svg viewBox="0 0 20 20" id="icon-vk" xmlns="http://www.w3.org/2000/svg"><g clip-path="url(#la)"><path d="M10 0C4.477 0 0 4.477 0 10s4.477 10 10 10 10-4.477 10-10S15.523 0 10 0zm3.846 11.282s.884.873 1.102 1.278c.006.009.01.017.011.021.089.15.11.265.066.351-.073.144-.323.215-.408.221h-1.563c-.108 0-.335-.028-.61-.218-.212-.148-.42-.39-.623-.627-.303-.352-.566-.656-.83-.656a.316.316 0 00-.1.016c-.2.064-.456.35-.456 1.11 0 .238-.187.374-.32.374H9.4c-.244 0-1.514-.085-2.639-1.272-1.377-1.453-2.616-4.368-2.627-4.395-.078-.188.084-.29.26-.29h1.578c.21 0 .279.129.327.242.056.133.262.659.601 1.25.549.965.885 1.357 1.155 1.357.05 0 .1-.014.145-.038.352-.196.286-1.45.27-1.711 0-.05 0-.562-.18-.808-.13-.178-.35-.245-.483-.27a.573.573 0 01.208-.176c.241-.121.677-.139 1.109-.139h.24c.47.006.59.037.76.08.344.082.351.303.32 1.063-.009.215-.018.46-.018.747 0 .062-.003.129-.003.2-.01.386-.023.825.25 1.005a.225.225 0 00.119.034c.095 0 .38 0 1.153-1.326.238-.427.445-.87.62-1.327.015-.027.061-.11.115-.143.04-.02.085-.03.13-.03h1.855c.202 0 .34.03.366.109.046.123-.008.502-.855 1.649l-.378.498c-.768 1.007-.768 1.058.048 1.821z"/></g><defs><clipPath id="la"><path d="M0 0h20v20H0z"/></clipPath></defs></svg><svg viewBox="0 0 20 20" id="icon-wts" xmlns="http://www.w3.org/2000/svg"><path d="M18.497 4.624C15.5.007 9.395-1.357 4.666 1.524.062 4.403-1.423 10.65 1.574 15.266l.25.375-.99 3.748 3.735-1.005.374.25c1.62.87 3.365 1.368 5.109 1.365a10.21 10.21 0 005.353-1.508c4.604-3.005 5.964-9.127 3.092-13.868zm-2.6 9.621c-.498.75-1.12 1.25-1.991 1.377-.498 0-1.12.252-3.614-.743-2.119-.996-3.865-2.617-5.113-4.489-.75-.873-1.125-1.996-1.251-3.12-.002-1 .37-1.874.992-2.5.25-.25.498-.375.747-.376h.623c.249-.001.498-.001.623.498.25.624.876 2.122.876 2.247a.38.38 0 010 .5c.126.249.002.499-.123.624-.124.125-.248.375-.373.5-.249.126-.373.376-.248.625.5.749 1.124 1.497 1.747 2.12.749.624 1.497 1.122 2.37 1.496.249.124.498.124.622-.126s.746-.876.995-1.126c.248-.25.373-.25.622-.126l1.995.996c.249.125.498.25.623.374.125.374.126.874-.122 1.249z"/><defs><linearGradient id="ma" x1="10.024" y1="20" x2="9.992" y2=".016" gradientUnits="userSpaceOnUse"><stop stop-color="#1FAF38"/><stop offset="1" stop-color="#60D669"/></linearGradient></defs></svg><svg viewBox="0 0 70 36" id="link"><path d="M6.974 30.815h56.05c2.503 0 12.512-34.5-27.524-28-51.66 8.388-34.606 31.162-8.508 31.5 77.07 1 27.525-41-3.503-25"/></svg><svg viewBox="0 0 752 752" id="logo-transparent" xmlns="http://www.w3.org/2000/svg"><defs><linearGradient id="oПеро" x1="444.82" y1="86.44" x2="272.24" y2="200.43" gradientUnits="userSpaceOnUse"><stop offset="0" stop-color="#9b9b9b"/><stop offset=".13" stop-color="#8b8b91"/><stop offset="1" stop-color="#060942"/></linearGradient><style>.ocls-2{fill:#060942}.ocls-4{fill:#fff}</style></defs><g id="oСлой_2" data-name="Слой 2"><g id="oСлой_1-2" data-name="Слой 1"><circle cx="376" cy="376" r="370"/><path class="ocls-2" d="M305.52 459.94q-18.41 14.54-28.36 14.54a12 12 0 01-10.16-5.13 20.29 20.29 0 01-3.78-12.35q0-9.23 3.75-23.11t6.29-16a10 10 0 016.7-2.14 5 5 0 014.29 2.38 9.42 9.42 0 011.67 5.54q0 .89-4.29 10.07-5.24 11.2-5.24 19.3a13.55 13.55 0 001.28 6.31q1.28 2.44 2.65 2.44a17.74 17.74 0 006.73-1.64 44.28 44.28 0 009.44-6q5.57-4.38 7.12-6.58a18.64 18.64 0 002.53-5.81q1-3.6 1.52-15.4a71 71 0 01.68-8.7 6 6 0 012.12-3.28 6.88 6.88 0 014.65-1.49q3.93 0 5.57 1.67t1.64 7.86q0 8.4-3 35.8t-11 39.7q-8 12.3-21.47 12.3a35.81 35.81 0 01-21.06-6.31q-9-6.31-9-11.2a6.72 6.72 0 011.4-4.47 4.55 4.55 0 013.66-1.67 4 4 0 013.28 1.67q8.46 9.83 20.61 9.83 15.37-.01 19.78-38.13zm47.41 20.55q-9.83 0-15-5.36t-5.12-14.89q0-15 12.21-32.47T369 410.31q5.66 0 9.65 5.63a20 20 0 014 11.71q0 5.72-2.12 7.71a6.12 6.12 0 01-4.08 2q-5.78 0-6.73-8-.71-5.84-2.92-5.84-4.65 0-12.27 13.22t-7.62 23.17q0 8 8.7 8 9.59 0 19.36-6.79 4.59-3.28 7.27-3.28 3.28 0 3.28 3.28 0 4.59-10.51 11.94a37.92 37.92 0 01-22.08 7.43zm61.6 0q-9.83 0-15-5.36t-5.12-14.89q0-15 12.21-32.47t23.95-17.45q5.66 0 9.65 5.63a20 20 0 014 11.71q0 5.72-2.12 7.71a6.12 6.12 0 01-4.08 2q-5.78 0-6.73-8-.71-5.84-2.92-5.84-4.65 0-12.27 13.22t-7.62 23.17q0 8 8.7 8 9.59 0 19.36-6.79 4.59-3.28 7.27-3.28 3.28 0 3.28 3.28 0 4.59-10.51 11.94a37.92 37.92 0 01-22.05 7.42zm75.71-33.66a14.39 14.39 0 015 2.32 28 28 0 015.54 6.08q6.19 8.58 9.77 11.26a12.73 12.73 0 007.8 2.68q4.41 0 4.41 2.74t-3 5.3q-3 2.68-9.59 2.68-10.07 0-20.43-16.62-6-9.77-10.07-9.77a14.48 14.48 0 00-2.89.77 10 10 0 00-3.07 1.4q-.71.63-1.19 7.6l-.66 11a6.51 6.51 0 01-2.2 4.62 7.33 7.33 0 01-5.18 1.94 7 7 0 01-5.12-1.82 5.22 5.22 0 01-1.85-3.66 65.16 65.16 0 011.49-9.75 424.51 424.51 0 005.66-45.87 10.23 10.23 0 012.86-6.31 8.08 8.08 0 016.14-2.86 4.92 4.92 0 014.05 2.08 7.68 7.68 0 011.61 4.83 14 14 0 01-.71 4.35A102.11 102.11 0 00476 432.3a111.9 111.9 0 00-2 12.09 26.64 26.64 0 0011-6 86.93 86.93 0 009.77-12.21A47.62 47.62 0 01504 416a15.07 15.07 0 019.41-3.31 7.37 7.37 0 015.21 2.35 6.93 6.93 0 012.41 5 4 4 0 01-1.34 3.31 14.22 14.22 0 01-4.68 2.12q-4.23 1.25-9.05 6.79-9.96 11.47-15.72 14.57zm82.15 8.58A55.25 55.25 0 01559.14 472q-7.54 6.14-15.28 6.14-4.59 0-9.26-4.83t-4.68-14.83q0-7.09 3.57-21.39 3.1-11.79 3.1-17.93 2.38-5 7.45-5a7 7 0 015.51 2.29 7 7 0 012.05 4.55q0 4.23-3 12a115.64 115.64 0 00-3.72 13.13q-2 8.49-2 10.87 0 7.92 3.28 7.92 5.18 0 14-9.95t11.5-20.37q2.68-10.19 4.77-13.34a6.67 6.67 0 015.9-3.16q6.19 0 6.2 6.91a16.58 16.58 0 01-1 4.05 74.93 74.93 0 00-3.53 23.85q0 15.49 5.24 18.53a2.92 2.92 0 011.73 2.5q0 2.14-3 4.05a11 11 0 01-5.78 1.91q-4.71 0-7.24-6.64t-2.56-17.85zm74.11 0A55.25 55.25 0 01633.24 472q-7.54 6.14-15.28 6.14-4.59 0-9.26-4.83t-4.7-14.86q0-7.09 3.57-21.39 3.1-11.79 3.1-17.93 2.38-5 7.45-5a7 7 0 015.51 2.29 7 7 0 012.06 4.62q0 4.23-3 12a115.81 115.81 0 00-3.69 13.17q-2 8.49-2 10.87 0 7.92 3.28 7.92 5.18 0 14-9.95t11.5-20.37q2.68-10.19 4.77-13.34a6.67 6.67 0 015.9-3.16q6.19 0 6.2 6.91a16.58 16.58 0 01-1 4.05 74.93 74.93 0 00-3.51 23.77q0 15.49 5.24 18.53a2.92 2.92 0 011.73 2.5q0 2.14-3 4.05a11 11 0 01-5.78 1.91q-4.71 0-7.24-6.64t-2.59-17.85zm19.5-66.78a8.76 8.76 0 01-.63 2.86 22.43 22.43 0 01-1.76 3.66 25 25 0 01-2.77 3.81 20.68 20.68 0 01-3.66 3.31h.06a20.23 20.23 0 01-3.43 1.79 30.51 30.51 0 01-4.2 1.4 42 42 0 01-4.47.89 29.59 29.59 0 01-4.23.33 27.39 27.39 0 01-6.55-.77 25 25 0 01-5.84-2.2 22.05 22.05 0 01-4.79-3.43 20.51 20.51 0 01-3.54-4.38 14.5 14.5 0 01-.8-1.82q-.39-1-.68-2a17.23 17.23 0 01-.45-1.76 7 7 0 01-.15-1 6.35 6.35 0 01.57-2.89 4.52 4.52 0 011.43-1.7 4.72 4.72 0 011.85-.77 10.19 10.19 0 011.82-.18 7.74 7.74 0 013.84 1 4.27 4.27 0 012.06 3.49 10.07 10.07 0 00.71 3.1 7.64 7.64 0 002 3 11.71 11.71 0 003.75 2.2 15.43 15.43 0 005.54.89 11 11 0 001.82-.18q1-.18 2.11-.45a16.3 16.3 0 002.11-.68 13.27 13.27 0 001.76-.83 7.79 7.79 0 002-1.73 12.12 12.12 0 001.43-2.17 19.78 19.78 0 001-2.32q.42-1.16.71-2.11a4.18 4.18 0 011-1.67 7 7 0 011.49-1.19 6.87 6.87 0 011.67-.71 6 6 0 011.58-.24 6.47 6.47 0 014.05 1.19q1.59 1.1 1.59 4.26zM277.52 618q0 1.43-1.88 4.08t-6.7 2.65q-5.9 0-10.54-10a86.51 86.51 0 01-6.67-22q-.71-4-1.91-9.29a33.28 33.28 0 01-.54-3.75 15.47 15.47 0 00-.48-3.22q-1 1.91-2 4.35a228.7 228.7 0 01-16.32 30.14l-.71 1.37a5.84 5.84 0 01-.89 1.19q-7.39 13.22-12.09 13.22-6.73 0-6.73-6 0-4.65 6.31-12.09 7.63-9.34 19.81-32.65l8.46-16.2a4.79 4.79 0 014.59-2.38 11.84 11.84 0 014.62 1.16 7 7 0 013.51 2.77 21.32 21.32 0 011.64 5.25q4.29 20.14 7.74 31.75T274.3 613a5.27 5.27 0 013.22 4.88zm63.14-14.88q0 6.2-10.42 14.8a36 36 0 01-23.53 8.61q-10.07 0-15.85-6.34t-5.78-17.66q0-16.68 11.79-31.27t25.2-14.59A14.16 14.16 0 01336.85 571q0 10.37-9.95 19.75t-25.5 13a2 2 0 00-1.79 2.14 7.76 7.76 0 002.53 5.45 9 9 0 006.76 2.59q12 0 23.77-12.33 2.26-2.38 4.41-2.38 3.58-.09 3.58 3.9zm-40-10.54a36.14 36.14 0 0016.59-8q7.18-6.13 7.18-11.14a5 5 0 00-1.1-3.31 3.5 3.5 0 00-2.83-1.34q-5.18 0-11.5 7.63a39.56 39.56 0 00-8.31 16.16zm63.53 17.75a3.6 3.6 0 001.91 2.95 6.31 6.31 0 003.4 1.28 41.78 41.78 0 0018-3.57q4.53-2.26 6.79-2.26 3.93 0 3.93 4.17 0 5.6-9 9.44t-22 3.84a20.65 20.65 0 01-13.46-4.56 14.35 14.35 0 01-5.6-11.65 21.44 21.44 0 014-11.97q3.93-5.93 19.54-14.21a59.82 59.82 0 009.38-5.6 5.09 5.09 0 002.17-3.75 3.06 3.06 0 00-1.28-2.53 3.85 3.85 0 00-1.94-1q-3.75 0-15.73 5.12a6.18 6.18 0 01-2.44.54q-5.66 0-5.66-3.75 0-6.25 9.95-10.22t17.16-4a16.54 16.54 0 0111.14 4.17 12.86 12.86 0 014.83 10.07A16.31 16.31 0 01395.5 583q-3.79 4.85-16.23 11.71-8.7 4.83-11.88 8.37a10.77 10.77 0 00-3.2 7.25zm77.03-17.1a14.39 14.39 0 015 2.32 28 28 0 015.54 6.08q6.19 8.58 9.77 11.26a12.73 12.73 0 007.8 2.68q4.41 0 4.41 2.74t-3 5.3q-3 2.68-9.59 2.68-10.07 0-20.43-16.62-6-9.77-10.07-9.77a14.48 14.48 0 00-2.89.77 10 10 0 00-3.07 1.4q-.71.63-1.19 7.6l-.66 11a6.51 6.51 0 01-2.2 4.62 7.33 7.33 0 01-5.18 1.94 7 7 0 01-5.12-1.82 5.23 5.23 0 01-1.85-3.66 65.16 65.16 0 011.49-9.71 424.51 424.51 0 005.66-45.87 10.23 10.23 0 012.86-6.31 8.08 8.08 0 016.1-2.86 4.92 4.92 0 014.05 2.08 7.68 7.68 0 011.61 4.83 14 14 0 01-.71 4.35A102 102 0 00427 578.7a112.34 112.34 0 00-2 12.09 26.64 26.64 0 0011-6 86.93 86.93 0 009.77-12.21A47.65 47.65 0 01455 562.4a15.08 15.08 0 019.41-3.31 7.37 7.37 0 015.21 2.35 6.94 6.94 0 012.41 5 4 4 0 01-1.34 3.31 14.27 14.27 0 01-4.68 2.11q-4.23 1.25-9.05 6.79-10.02 11.48-15.74 14.58zm96.5.18a47.58 47.58 0 01-15.16 23.5q-11.17 9.56-22.31 9.56a18.55 18.55 0 01-14.53-6.47 23.1 23.1 0 01-5.72-15.87q0-15.37 10.48-30.26T515.92 559a20.5 20.5 0 0116.5 7.54 27.07 27.07 0 016.31 18 39 39 0 01-1 8.88zm-31-18.82q-4.17 3.69-8.16 11.79a36.5 36.5 0 00-4 16.26 16.42 16.42 0 001.82 8.16q1.82 3.22 4.79 3.22 7.39 0 15.37-8.76t8-19.66a18.11 18.11 0 00-2.59-10.1 8.19 8.19 0 00-7.24-4 11.8 11.8 0 00-7.92 3zm49.83 47.89q-6.55 0-6.55-7.27 0-2.74 2.68-6.31t5.78-3.57a10 10 0 015.06 2q3 2 3 3.34l-.6 3.69a8.14 8.14 0 01-3.87 6q-3.3 2.12-5.5 2.12zm8.46-27.4q-6 0-9.23-2.44a81.83 81.83 0 011.67-23.89q2.92-13.28 2.92-19.9 0-.65.63-5a9.34 9.34 0 013.78-6.58q3.16-2.26 5.36-2.26a7.17 7.17 0 014.56 1.76 5 5 0 012.17 3.84q0 1.67-2.41 12.36t-4.8 19.69a66.78 66.78 0 00-2.62 15 15.2 15.2 0 01-2.04 7.42zM395.24 234.53q20.7 12.17 28.43 26.47t5.75 28.76q-2 14.47-11.67 28.43a124.13 124.13 0 01-23.83 25.47 175.28 175.28 0 01-31.23 20.21 154.15 154.15 0 01-33.2 12.66 294.52 294.52 0 01-40.43 6.9q-20.05 2-33.2 1-10.85 16.11-23 31.06a340.81 340.81 0 01-26.3 28.76Q185.52 464 161 472.68a110.28 110.28 0 01-51.11 5.42q-16.76-2-26.3-8.88T71.3 453.61a26.77 26.77 0 01.49-17.75 30.25 30.25 0 0112.16-15q8.87-5.92 22.85-7.4t32.7 4.77q5.25 2 4.27 3.94t-5.26.33q-13.15-4.93-22.84-3.62t-15.77 6.3a24.19 24.19 0 00-8.22 12.16 23.86 23.86 0 000 14.13 23.61 23.61 0 008.55 11.83q6.41 4.93 17.91 5.59a78.74 78.74 0 0040.43-8.55 151.39 151.39 0 0035.17-25.64q16.1-15.78 29.58-39.12T250.77 346q14-26.29 29.91-53.25a325.32 325.32 0 0137-50.62q4.6-4.93 8.71-9.53t8.71-8.88q-14.14-2-28.93-2.63t-28.93-.16q-14.14.49-27.12 1.81T226.94 226a291.2 291.2 0 00-34.68 9.2 192.69 192.69 0 00-36.65 16.27 129.06 129.06 0 00-30.4 24 60.81 60.81 0 00-15.94 32.38 37.52 37.52 0 00.82 16.11 37 37 0 006.57 13.15 32.72 32.72 0 0010.85 8.89 33.33 33.33 0 0014 3.62 36 36 0 0015.45-2.79 55.35 55.35 0 0014.13-8.55 62.47 62.47 0 0011.67-12.82 68.06 68.06 0 008.05-15.61q.66-3.61 2.63-3.45t2 3.78a39.64 39.64 0 01-4.98 19.82 47 47 0 01-12.82 14.63 56.61 56.61 0 01-17.59 8.88 58.57 58.57 0 01-19.23 2.63 60.72 60.72 0 01-18.9-3.62 44.72 44.72 0 01-15.78-9.7 46.15 46.15 0 01-10.68-15.78q-3.94-9.37-3.29-21.86a57 57 0 017.56-26.63 84.54 84.54 0 0117.91-21.37 124.33 124.33 0 0124.82-16.6 224.67 224.67 0 0128.43-12.16 281.51 281.51 0 0128.76-8.38q14.13-3.28 26-4.93a509.34 509.34 0 0158.35-4.74 266 266 0 0160 5.1 122.13 122.13 0 0111.34-7.72 71.52 71.52 0 0113.31-6.08q7.89-3.28 8.55-1t-5.26 5.92a76.94 76.94 0 00-6.57 4.77 96.64 96.64 0 00-8.22 7.4 148.75 148.75 0 0138.09 15.77zm-7.56 6.9a90.92 90.92 0 00-16.93-8.55 170 170 0 00-19.89-6.25q-12.5 17.75-23.67 36.65t-22 38.13q-10.85 19.23-21.86 38.46t-22.85 37.64a129.82 129.82 0 0027.61-1.81 259 259 0 0030.9-7.07 148.29 148.29 0 0033.36-14.46A153.42 153.42 0 00380 333.64a114.73 114.73 0 0019.56-23.83 64.45 64.45 0 009.2-24.82 43.79 43.79 0 00-3.29-23.67q-4.97-11.32-17.79-19.88z"/><path d="M195.44 306.53c.34 0-1.84-1.41-1.57-2 1.75-3.45 5.15-9.39 5.15-13.31a15.19 15.19 0 00-1.56-5.48 2.72 2.72 0 01.15-2.1l15.84-17.06-.83-4.33a1.42 1.42 0 011.28-1.69l3.34-.29 16.4-26.49s-3.84-47.54 3.73-62.67c0 5.48 1.17 15.65 3.52 18.39-.39-8.22-.07-18.27 2.68-24.65s26.6-21.13 26.6-21.13l2.35 18.39s.39-20.74 9.06-26.73 31.54-20.19 31.54-20.19l-9.24 26.57s13.5-26.76 18.06-31.56 28.43-17.29 28.43-17.29L348 103.09s3.52-7.82 6.72-11.81c2.71-3.37 21.45-10.09 21.45-10.09s.39 6.09-.78 9a55.19 55.19 0 01-4.62 7.81s16.7-16.38 21.82-19.34 30.28-10.09 30.28-10.09l-5.15 9.09s9.64-8.48 14.42-10.56 20-3.52 20-3.52l-5.48 8.22s10.27-10.8 29.19-12.06c15-1 35.46-1.25 43.37-1.25 2.89 0 3.36-.33 2.5.39 0 0-9.66 9.78-13.63 11.35s-18 3.52-18 3.52l13.51-.13s-16.6 10.3-19.76 11.47S448.23 91 448.23 91L478 89.79s-26.25 18.36-28.61 19.15-25.39 3.15-25.39 3.15 13 .5 15.29.64-27.09 20.49-36 23.23c-6.47 1.15-12.19-2.74-26.27.78 6.65.78 20.66 3.75 20.66 3.75s-14.87 14.79-21.39 16.6c-3.5 1-8.67-1.56-15.71.78a47 47 0 019.06 3.91s-9.84 11.35-18.06 14.48c-8.22 2-30.12 1.56-30.12 1.56s2 4.69 24.71 3.52c-1.56 5.48-9.68 12.56-14.93 14.08-6.71 2-22.69 5.09-36 6.26 5.48 2.35 32.38-.45 32.38-.45s-26.51 31-39.47 32.94c-7.72.38-22.95-1.59-22.95-1.59a33.53 33.53 0 0012.8 5.48c-6.65 2.35-30.87 2.29-30.87 2.29a1.71 1.71 0 00-1.29.75l-17.31 25.54 1.22 4.1a1.46 1.46 0 01-1.3 1.87l-3.66.27L216.2 295a1.19 1.19 0 01-1 .8s-3.77-1.13-5.66-.18c-2.35 1.17-2.77 2.26-3.91 3.52-.95 1-5 6.41-6.71 8.61-.3.39-2 0-2.35-.39l13.69-21.52c5.85.37 2.74-5.48 2.74-5.48s-6.39-.26-3.91 4.69c-.88 1.26-13.89 21.48-13.65 21.48z"/><path class="ocls-4" d="M470.37 73c-162.56 46-208.72 125.39-244.52 182.71-1.56 2.74 1.56 4.69 3.52 1.56 35.41-49.88 72.18-123.43 241.2-184.08M228.3 269.36c-1.17-.78-8.61-4.3-10.25-5a1 1 0 00-1.22.25l-.27.49c-.34.46.07 1 .58 1.29l9.28 5.2c1.88.9 3.26-1.31 1.88-2.23zm-12.91 22.3c1.16-2.12 6-14 7.43-16.82.78-1.56.78-2 .39-2.35a1.62 1.62 0 00-2.81.53l-7.81 16.79c-1.42 3.39 1.41 4.35 2.8 1.85z"/></g></g></svg><svg viewBox="0 0 1625.1 664.92" id="logo-vertical" xmlns="http://www.w3.org/2000/svg"><defs><linearGradient id="pПеро" x1="552.12" y1="41.29" x2="297.9" y2="209.2" gradientUnits="userSpaceOnUse"><stop offset="0" stop-color="#9b9b9b"/><stop offset=".13" stop-color="#8b8b91"/><stop offset="1" stop-color="#060942"/></linearGradient><style>.pcls-1{fill:#060942}.pcls-3{fill:#fff}</style></defs><g id="pСлой_2" data-name="Слой 2"><g id="pСлой_1-2" data-name="Слой 1"><path class="pcls-1" d="M365.26 584.14q-29.57 23.35-45.55 23.35a19.22 19.22 0 01-16.37-8.23q-6-8.23-6-19.81 0-14.83 6-37.13t10.1-25.74q4.07-3.45 10.77-3.45a8.1 8.1 0 016.89 3.87 15.14 15.14 0 012.68 8.9q0 1.44-6.89 16.17-8.42 18-8.42 31a21.79 21.79 0 002.06 10.14q2.06 3.93 4.26 3.92a28.49 28.49 0 0010.81-2.63q6.22-2.63 15.17-9.67t11.44-10.58a29.92 29.92 0 004.07-9.33q1.58-5.79 2.44-24.74.48-11.1 1.1-14a9.71 9.71 0 013.4-5.26 11 11 0 017.46-2.39q6.32 0 8.95 2.68t2.63 12.63q0 13.49-4.83 57.52t-17.61 63.79q-12.78 19.76-34.5 19.76-19.33 0-33.83-10.14t-14.5-18a10.8 10.8 0 012.25-7.18 7.31 7.31 0 015.89-2.68 6.44 6.44 0 015.26 2.68q13.59 15.79 33.11 15.79 24.68.01 31.76-61.24zm76.18 33.02q-15.79 0-24-8.61t-8.23-23.93q0-24.12 19.62-52.16t38.47-28q9.09 0 15.5 9t6.41 18.81q0 9.19-3.4 12.39t-6.56 3.21q-9.28 0-10.81-12.82-1.15-9.38-4.69-9.38-7.46 0-19.71 21.25t-12.25 37.23q0 12.92 14 12.92 15.41 0 31.1-10.91 7.37-5.26 11.68-5.26 5.26 0 5.26 5.26 0 7.37-16.89 19.19t-35.5 11.81zm98.96 0q-15.79 0-24-8.61t-8.23-23.93q0-24.12 19.62-52.16t38.47-28q9.09 0 15.5 9t6.41 18.81q0 9.19-3.4 12.39t-6.56 3.21q-9.28 0-10.81-12.82-1.15-9.38-4.69-9.38-7.46 0-19.71 21.25t-12.25 37.23q0 12.92 14 12.92 15.41 0 31.1-10.91 7.37-5.26 11.68-5.26 5.26 0 5.26 5.26 0 7.37-16.89 19.19t-35.5 11.81zM662 563.09a23.13 23.13 0 018 3.73q3.73 2.68 8.9 9.76 10 13.78 15.7 18.09a20.45 20.45 0 0012.61 4.33q7.08 0 7.08 4.4 0 4.21-4.88 8.52T694 616.2q-16.17 0-32.83-26.7-9.67-15.69-16.17-15.7a23.28 23.28 0 00-4.64 1.24 16 16 0 00-4.93 2.25q-1.15 1-1.91 12.2l-1.05 17.61a10.46 10.46 0 01-3.54 7.42 11.78 11.78 0 01-8.33 3.11q-5.26 0-8.23-2.92t-3-5.89q0-3.64 2.39-15.6 5.74-30.15 9.09-73.69a16.44 16.44 0 014.59-10.14 13 13 0 019.86-4.59 7.91 7.91 0 016.51 3.35 12.34 12.34 0 012.58 7.75 22.55 22.55 0 01-1.15 7 164 164 0 00-4.07 16.84 180.2 180.2 0 00-3.17 19.43q11.39-3.45 17.71-9.57t15.7-19.6q7.85-11.1 14.74-16.41a24.22 24.22 0 0115.12-5.31 11.84 11.84 0 018.37 3.78q3.88 3.78 3.88 8a6.47 6.47 0 01-2.15 5.31q-2.15 1.77-7.51 3.4-6.8 2-14.55 10.91-16.08 18.43-25.31 23.41zm132 13.78q-9.19 16.75-21.29 26.61t-24.55 9.86q-7.37 0-14.88-7.75t-7.51-23.83q0-11.39 5.74-34.36 5-18.95 5-28.81 3.83-8 12-8a11.3 11.3 0 018.85 3.68q3.3 3.69 3.3 7.42 0 6.8-4.79 19.33a185.7 185.7 0 00-6 21.1q-3.21 13.64-3.21 17.47 0 12.73 5.26 12.73 8.33 0 22.49-16t18.47-32.73q4.31-16.37 7.66-21.44a10.71 10.71 0 019.47-5.07q10 0 10 11.1a26.64 26.64 0 01-1.63 6.51q-5.65 16.94-5.65 38.19 0 24.88 8.42 29.76 2.77 1.63 2.78 4 0 3.45-4.88 6.51a17.59 17.59 0 01-9.28 3.06q-7.56 0-11.63-10.67T794 576.87zm119.07 0q-9.19 16.75-21.29 26.61t-24.55 9.86q-7.37 0-14.88-7.75t-7.51-23.83q0-11.39 5.74-34.36 5-18.95 5-28.81 3.83-8 12-8a11.3 11.3 0 018.85 3.68q3.3 3.69 3.3 7.42 0 6.8-4.79 19.33a185.7 185.7 0 00-6 21.1q-3.21 13.64-3.21 17.47 0 12.73 5.26 12.73 8.33 0 22.49-16t18.47-32.73q4.31-16.37 7.66-21.44a10.71 10.71 0 019.47-5.07q10 0 10 11.1a26.64 26.64 0 01-1.63 6.51q-5.65 16.94-5.65 38.19 0 24.88 8.42 29.76 2.77 1.63 2.78 4 0 3.45-4.88 6.51a17.59 17.59 0 01-9.28 3.06q-7.56 0-11.63-10.67t-4.14-28.67zm31.29-107.28a14.11 14.11 0 01-1 4.59 36.23 36.23 0 01-2.82 5.89 40.24 40.24 0 01-4.45 6.13 33.3 33.3 0 01-5.89 5.31h.1a32.53 32.53 0 01-5.5 2.87 49.07 49.07 0 01-6.75 2.25 67.92 67.92 0 01-7.18 1.44 47.52 47.52 0 01-6.79.53 44 44 0 01-10.53-1.24 40.1 40.1 0 01-9.38-3.54 35.45 35.45 0 01-7.7-5.5 32.94 32.94 0 01-5.69-7 23 23 0 01-1.29-2.92q-.62-1.67-1.1-3.25a27.56 27.56 0 01-.72-2.82 11.14 11.14 0 01-.24-1.63 10.17 10.17 0 01.91-4.64 7.24 7.24 0 012.3-2.73 7.58 7.58 0 013-1.24 16.39 16.39 0 012.92-.29 12.44 12.44 0 016.17 1.58q2.82 1.58 3.3 5.6a16.15 16.15 0 001.15 5 12.27 12.27 0 003.25 4.79 18.81 18.81 0 006 3.54 24.79 24.79 0 008.9 1.44 17.6 17.6 0 002.92-.29q1.67-.29 3.4-.72a26.27 26.27 0 003.4-1.1 21.37 21.37 0 002.82-1.34 12.51 12.51 0 003.25-2.78 19.47 19.47 0 002.3-3.49 31.85 31.85 0 001.63-3.73q.67-1.87 1.15-3.4a6.71 6.71 0 011.58-2.68 11.27 11.27 0 012.39-1.91 11 11 0 012.68-1.15 9.65 9.65 0 012.54-.38 10.39 10.39 0 016.51 1.91q2.46 1.83 2.46 6.9zm199.83 133.22q0 2.3-3 6.56t-10.77 4.26q-9.47 0-16.94-16.13a138.94 138.94 0 01-10.72-35.27q-1.15-6.41-3.06-14.93a53.38 53.38 0 01-.86-6q-.48-4.78-.77-5.17-1.53 3.06-3.25 7a367.43 367.43 0 01-26.22 48.43l-1.15 2.2a9.39 9.39 0 01-1.44 1.91q-11.87 21.25-19.43 21.25-10.82 0-10.81-9.67 0-7.46 10.14-19.43 12.35-14.93 31.87-52.35l13.59-26q2.1-3.83 7.37-3.83a19 19 0 017.42 1.87q4.26 1.87 5.65 4.45a34.34 34.34 0 012.63 8.42q6.89 32.35 12.44 51t12.12 23.48q5.17 2.68 5.17 7.85zM1245.64 579q0 10-16.75 23.78a57.81 57.81 0 01-37.8 13.83q-16.17 0-25.46-10.19t-9.28-28.42q0-26.79 18.95-50.24t40.48-23.45q10.72 0 17.23 6.79a22.59 22.59 0 016.51 16.17q0 16.65-16 31.73t-41 20.82a3.27 3.27 0 00-2.87 3.45q0 4.59 4.07 8.76t10.86 4.16q19.24 0 38.19-19.81 3.64-3.83 7.08-3.83 5.79.01 5.79 6.45zm-64.22-17a58.07 58.07 0 0026.65-12.92q11.53-9.86 11.53-17.9a8.09 8.09 0 00-1.77-5.31 5.62 5.62 0 00-4.55-2.15q-8.33 0-18.47 12.25a63.55 63.55 0 00-13.39 26.03zm102.02 28.56q0 2.68 3.06 4.74a10.13 10.13 0 005.46 2.06q16.75 0 28.9-5.74 7.27-3.64 10.91-3.64 6.32 0 6.32 6.7 0 9-14.4 15.17t-35.27 6.15q-12.63 0-21.63-7.32a23.06 23.06 0 01-9-18.71q0-9.67 6.32-19.19T1295.5 548q11.58-6 15.07-9t3.49-6a4.91 4.91 0 00-2.06-4.07 6.18 6.18 0 00-3.11-1.58q-6 0-25.27 8.23a9.92 9.92 0 01-3.92.86q-9.09 0-9.09-6 0-10 16-16.41t27.56-6.36a26.57 26.57 0 0117.9 6.7q7.75 6.7 7.75 16.17 0 8.52-6.08 16.32t-26.08 18.81q-14 7.75-19.09 13.45t-5.13 11.44zm123.74-27.47a23.13 23.13 0 018 3.73q3.73 2.68 8.9 9.76 10 13.78 15.7 18.09a20.45 20.45 0 0012.54 4.31q7.08 0 7.08 4.4 0 4.21-4.88 8.52t-15.41 4.31q-16.17 0-32.83-26.7-9.67-15.69-16.17-15.7a23.28 23.28 0 00-4.64 1.24 16 16 0 00-4.93 2.25q-1.15 1-1.91 12.2l-1.05 17.61a10.46 10.46 0 01-3.54 7.42 11.78 11.78 0 01-8.33 3.11q-5.26 0-8.23-2.92t-3-5.89q0-3.64 2.39-15.6 5.74-30.15 9.09-73.69a16.43 16.43 0 014.59-10.14 13 13 0 019.86-4.59 7.91 7.91 0 016.51 3.35 12.34 12.34 0 012.58 7.75 22.55 22.55 0 01-1.15 7 164 164 0 00-4.07 16.84 180.08 180.08 0 00-3.21 19.43q11.39-3.45 17.71-9.57t15.7-19.62q7.85-11.1 14.74-16.41a24.22 24.22 0 0115.12-5.31 11.84 11.84 0 018.37 3.78q3.88 3.78 3.88 8a6.47 6.47 0 01-2.15 5.31q-2.15 1.77-7.51 3.4-6.8 2-14.55 10.91-16.01 18.44-25.2 23.42zm155.04.29a76.44 76.44 0 01-24.36 37.75q-17.94 15.36-35.84 15.36a29.81 29.81 0 01-23.35-10.38q-9.19-10.38-9.19-25.5 0-24.69 16.84-48.62t40.87-23.93q16.37 0 26.51 12.11t10.15 28.83a62.69 62.69 0 01-1.63 14.26zm-49.77-30.24q-6.7 5.94-13.11 18.95a58.63 58.63 0 00-6.41 26.13q0 7.95 2.92 13.11t7.7 5.17q11.87 0 24.69-14.07t12.82-31.58q0-9.86-4.16-16.22a13.15 13.15 0 00-11.63-6.36 19 19 0 00-12.73 4.88zm80.02 76.94q-10.53 0-10.53-11.68 0-4.4 4.31-10.14t9.28-5.74q3.25 0 8.13 3.16t4.88 5.36l-1 5.93a13.08 13.08 0 01-6.22 9.71q-5.32 3.4-8.85 3.4zm13.59-44q-9.57 0-14.83-3.92a131.45 131.45 0 012.68-38.38q4.69-21.34 4.69-32 0-1.05 1-8a15 15 0 016.08-10.58q5.07-3.64 8.61-3.64a11.51 11.51 0 017.32 2.82q3.49 2.82 3.49 6.17 0 2.68-3.88 19.86t-7.7 31.63q-4 15-4.21 24a24.43 24.43 0 01-3.25 12.02z"/><path class="pcls-1" d="M479.08 259.44q30.51 17.92 41.88 39t8.47 42.37q-2.91 21.31-17.19 41.88a182.85 182.85 0 01-35.11 37.53 258.2 258.2 0 01-46 29.78 227.08 227.08 0 01-48.91 18.64 433.86 433.86 0 01-59.56 10.17q-29.54 2.91-48.91 1.45Q257.79 504 239.88 526a502.2 502.2 0 01-38.74 42.37q-31 29.05-67.06 41.88a162.45 162.45 0 01-75.29 8q-24.7-2.9-38.74-13.07t-18.16-23A39.43 39.43 0 012.61 556q4.85-13.31 17.92-22t33.65-10.89q20.58-2.18 48.18 7 7.74 2.9 6.29 5.81t-7.75.48q-19.37-7.26-33.65-5.33T44 540.28a35.63 35.63 0 00-12.09 17.92 35.14 35.14 0 000 20.82 34.79 34.79 0 0012.59 17.43q9.44 7.26 26.39 8.23 32.43 1.45 59.56-12.59t51.81-37.77q23.72-23.24 43.58-57.62t40.43-73.12q20.58-38.73 44.06-78.44a479.19 479.19 0 0154.47-74.57q6.77-7.26 12.83-14t12.83-13.07q-20.82-2.9-42.61-3.87t-42.61-.24q-20.82.73-39.95 2.66t-34.14 4.84a429 429 0 00-51.08 13.56 283.85 283.85 0 00-54 24 190.12 190.12 0 00-44.77 35.28 89.58 89.58 0 00-23.48 47.69A55.27 55.27 0 0059 391.15a54.55 54.55 0 009.68 19.37 48.19 48.19 0 0016 13.07 49.1 49.1 0 0020.58 5.33A53.07 53.07 0 00128 424.8a81.54 81.54 0 0020.82-12.59A92.07 92.07 0 00166 393.33a100.34 100.34 0 0011.86-23q1-5.32 3.87-5.08t2.91 5.57q0 16.47-7.26 29.29a69.24 69.24 0 01-18.88 21.55 83.39 83.39 0 01-25.91 13.07 86.28 86.28 0 01-28.33 3.87 89.45 89.45 0 01-27.84-5.33A65.89 65.89 0 0153.21 419a68 68 0 01-15.74-23.24q-5.81-13.8-4.84-32.2a84 84 0 0111.14-39.22 124.55 124.55 0 0126.39-31.47 183.15 183.15 0 0136.56-24.45 331 331 0 0141.88-17.92 414.62 414.62 0 0142.4-12.36q20.81-4.83 38.25-7.26a750.31 750.31 0 0185.95-7 391.91 391.91 0 0188.37 7.51A180 180 0 01420.25 220a105.33 105.33 0 0119.61-9q11.62-4.84 12.59-1.45t-7.75 8.72a113.35 113.35 0 00-9.68 7 142.36 142.36 0 00-12.11 10.89 219.13 219.13 0 0156.17 23.28zm-11.14 10.17A133.93 133.93 0 00443 257a250.45 250.45 0 00-29.29-9.2q-18.41 26.15-34.86 54T346.4 358q-16 28.33-32.2 56.65t-33.65 55.44a191.24 191.24 0 0040.67-2.66A381.59 381.59 0 00366.74 457a218.44 218.44 0 0049.15-21.31 226 226 0 0040.67-30.26 169 169 0 0028.81-35.11q11.13-18.4 13.56-36.56a64.51 64.51 0 00-4.84-34.86q-7.27-16.7-26.15-29.29z"/><path d="M184.75 365.5c.49 0-2.71-2.08-2.31-2.88C185 357.54 190 348.79 190 343c0-3.51-2.31-8.07-2.31-8.07a4 4 0 01.22-3.09l23.33-25.13-1.22-6.38a2.1 2.1 0 011.88-2.48l4.92-.43 24.16-39s-5.66-70 5.49-92.33c0 8.07 1.73 23.05 5.19 27.09-.58-12.1-.11-26.92 3.95-36.31s39.19-31.12 39.19-31.12l3.46 27.09s.58-30.55 13.34-39.38 46.5-29.74 46.5-29.74l-13.61 39.14s19.9-39.56 26.62-46.58S413 50.82 413 50.82l-3.46 15s5.19-11.53 9.9-17.4c4-5 31.59-14.87 31.59-14.87s.58 9-1.15 13.25S443 58.32 443 58.32s24.6-24.13 32.14-28.49S519.78 15 519.78 15l-7.58 13.39s14.2-12.49 21.24-15.56 29.47-5.23 29.47-5.23l-8.07 12.1S570 3.81 597.83 2C619.88.48 650.07.12 661.73.11c4.26 0 4.95-.48 3.68.57 0 0-14.23 14.41-20.08 16.71s-26.51 5.19-26.51 5.19l19.9-.19s-24.43 15.17-29.13 16.9-52.45 8.64-52.45 8.64l43.8-1.73s-38.67 27-42.14 28.22-37.39 4.63-37.39 4.63 19.2.73 22.52.94-39.9 30.18-53.07 34.21c-9.53 1.69-18-4-38.7 1.15 9.8 1.15 30.44 5.52 30.44 5.52s-21.9 21.79-31.51 24.45c-5.16 1.43-12.77-2.31-23.14 1.15a69.29 69.29 0 0113.34 5.76s-14.5 16.71-26.6 21.32c-12.1 2.88-44.38 2.31-44.38 2.31s3 6.92 36.4 5.19c-2.31 8.07-14.26 18.49-22 20.75-9.88 2.88-33.43 7.49-53 9.22 8.07 3.46 47.7-.67 47.7-.67S340.36 256 321.28 258.9c-11.38.56-33.81-2.34-33.81-2.34a49.4 49.4 0 0019 8.08C296.65 268.1 261 268 261 268a2.52 2.52 0 00-1.9 1.1l-25.5 37.63 1.79 6a2.15 2.15 0 01-1.92 2.76l-5.38.4-12.73 32.51a1.76 1.76 0 01-1.42 1.18s-5.56-1.66-8.33-.27c-3.46 1.73-4.07 3.32-5.76 5.19-1.4 1.54-7.42 9.44-9.88 12.68-.44.57-3-.07-3.46-.58l20.14-31.6c8.62.54 4-8.07 4-8.07s-9.42-.39-5.76 6.92c-1.32 1.87-20.49 31.65-20.14 31.65z"/><path class="pcls-3" d="M589.76 21.43C350.3 89.15 282.29 206.15 229.55 290.58c-2.31 4 2.31 6.92 5.19 2.31C286.9 219.4 341.07 111.05 590 21.72M233.17 310.75c-1.73-1.15-12.68-6.34-15.1-7.42a1.45 1.45 0 00-1.8.37l-.39.72c-.51.68.11 1.51.86 1.9l13.67 7.68c2.76 1.36 4.79-1.9 2.76-3.25zm-19.02 32.85c1.71-3.12 8.85-20.59 11-24.78 1.15-2.31 1.15-2.88.58-3.46-.91-.91-2.88-1.73-4.14.78L210 340.87c-2.06 4.99 2.13 6.4 4.15 2.73z"/></g></g></svg><svg viewBox="0 0 1602.84 679.88" id="logo-vertical-white" xmlns="http://www.w3.org/2000/svg"><defs><linearGradient id="qБезымянный_градиент_2" x1="536.08" y1="23" x2="222.65" y2="276.73" gradientUnits="userSpaceOnUse"><stop offset="0" stop-color="#9b9b9b"/><stop offset=".13" stop-color="#8b8b91"/><stop offset="1" stop-color="#fff"/></linearGradient><style>.qcls-1{fill:#f2f2f2}.qcls-3{fill:#060942}</style></defs><g id="qСлой_2" data-name="Слой 2"><g id="qСлой_1-2" data-name="Слой 1"><path class="qcls-1" d="M341.22 599q-29.61 23.38-45.61 23.38a19.25 19.25 0 01-16.39-8.24q-6-8.24-6-19.83 0-14.85 6-37.18t10.11-25.78q4.07-3.45 10.78-3.45a8.11 8.11 0 016.9 3.83 15.16 15.16 0 012.68 8.91q0 1.44-6.9 16.19-8.43 18-8.43 31a21.79 21.79 0 002.06 10.16q2.06 3.93 4.26 3.93a28.53 28.53 0 0010.83-2.64q6.23-2.63 15.19-9.68t11.45-10.59a30 30 0 004.07-9.34q1.58-5.8 2.44-24.77.48-11.11 1.1-14a9.72 9.72 0 013.4-5.27 11.06 11.06 0 017.47-2.4q6.32 0 9 2.68t2.63 12.65q0 13.51-4.84 57.59t-17.65 63.95q-12.77 19.78-34.54 19.78-19.36 0-33.87-10.16t-14.52-18a10.81 10.81 0 012.25-7.18 7.32 7.32 0 015.89-2.68 6.45 6.45 0 015.27 2.68q13.6 15.81 33.15 15.81 24.73-.01 31.82-61.35zm76.27 33.07q-15.81 0-24.05-8.62t-8.24-24q0-24.15 19.64-52.22t38.52-28.08q9.1 0 15.52 9.05t6.42 18.83q0 9.2-3.4 12.41t-6.56 3.21q-9.3 0-10.83-12.84-1.15-9.39-4.7-9.39-7.47 0-19.74 21.27T407.82 599q0 12.94 14 12.94 15.43 0 31.14-10.92 7.38-5.27 11.69-5.27 5.27 0 5.27 5.27 0 7.38-16.91 19.21t-35.52 11.84zm99.08 0q-15.81 0-24.05-8.62t-8.24-24q0-24.15 19.64-52.22t38.52-28.08q9.1 0 15.52 9.05t6.42 18.83q0 9.2-3.4 12.41t-6.56 3.21q-9.3 0-10.83-12.84-1.15-9.39-4.7-9.39-7.47 0-19.74 21.27T506.89 599q0 12.94 14 12.94 15.43 0 31.14-10.92 7.38-5.27 11.69-5.27 5.27 0 5.27 5.27 0 7.38-16.91 19.21t-35.51 11.84zm121.79-54.14a23.15 23.15 0 018 3.74q3.74 2.68 8.91 9.77 10 13.8 15.71 18.11a20.47 20.47 0 0012.55 4.31q7.09 0 7.09 4.41 0 4.22-4.89 8.53t-15.43 4.31q-16.19 0-32.87-26.73-9.68-15.71-16.19-15.71a23.29 23.29 0 00-4.65 1.25 16 16 0 00-4.94 2.25q-1.15 1-1.92 12.22l-.98 17.61a10.47 10.47 0 01-3.55 7.43 11.79 11.79 0 01-8.34 3.11q-5.27 0-8.24-2.92t-3-5.89q0-3.64 2.4-15.62 5.75-30.18 9.1-73.78a16.45 16.45 0 014.6-10.16 13 13 0 019.87-4.6 7.92 7.92 0 016.52 3.35 12.36 12.36 0 012.59 7.76 22.58 22.58 0 01-1.15 7 164.24 164.24 0 00-4.07 16.86A180 180 0 00612.3 574q11.4-3.45 17.73-9.58t15.71-19.64q7.86-11.11 14.76-16.43a24.24 24.24 0 0115.13-5.35 11.85 11.85 0 018.38 3.78q3.88 3.79 3.88 8a6.48 6.48 0 01-2.16 5.32q-2.15 1.77-7.52 3.4-6.8 2-14.56 10.92-16.09 18.58-25.29 23.51zm132.13 13.8q-9.2 16.77-21.32 26.64t-24.58 9.87q-7.38 0-14.9-7.76t-7.52-23.86q0-11.4 5.75-34.4 5-19 5-28.84 3.83-8 12-8a11.32 11.32 0 018.86 3.69q3.3 3.69 3.3 7.43 0 6.8-4.79 19.36a186 186 0 00-6 21.13q-3.21 13.65-3.21 17.49 0 12.74 5.27 12.74 8.34 0 22.52-16t18.49-32.77q4.29-16.45 7.64-21.53a10.72 10.72 0 019.49-5.08q10 0 10 11.12a26.67 26.67 0 01-1.63 6.52q-5.65 17-5.65 38.23 0 24.91 8.43 29.8 2.78 1.63 2.78 4 0 3.45-4.89 6.52a17.61 17.61 0 01-9.29 3.07q-7.57 0-11.64-10.68t-4.11-28.69zm119.2 0q-9.2 16.77-21.32 26.64t-24.58 9.87q-7.38 0-14.9-7.76t-7.52-23.86q0-11.4 5.75-34.4 5-19 5-28.84 3.83-8 12-8a11.31 11.31 0 018.86 3.69q3.31 3.69 3.31 7.43 0 6.8-4.79 19.36a186.28 186.28 0 00-6 21.13q-3.21 13.65-3.21 17.49 0 12.74 5.27 12.74 8.34 0 22.52-16t18.49-32.77q4.31-16.39 7.67-21.46a10.72 10.72 0 019.49-5.08q10 0 10 11.12a26.67 26.67 0 01-1.63 6.52q-5.65 17-5.65 38.23 0 24.91 8.43 29.8 2.78 1.63 2.78 4 0 3.45-4.89 6.52a17.61 17.61 0 01-9.29 3.07q-7.57 0-11.64-10.68t-4.15-28.76zM921 484.32a14.09 14.09 0 01-1 4.6 36.09 36.09 0 01-2.83 5.89 40.18 40.18 0 01-4.46 6.13 33.27 33.27 0 01-5.89 5.32h.1a32.53 32.53 0 01-5.51 2.87 49.07 49.07 0 01-6.75 2.25 67.63 67.63 0 01-7.19 1.44 47.6 47.6 0 01-6.8.53 44.06 44.06 0 01-10.54-1.25 40.16 40.16 0 01-9.39-3.55A35.47 35.47 0 01853 503a33 33 0 01-5.7-7 23.32 23.32 0 01-1.29-2.92q-.62-1.68-1.1-3.26a27.71 27.71 0 01-.72-2.83 11.22 11.22 0 01-.24-1.63 10.21 10.21 0 01.91-4.65 7.27 7.27 0 012.3-2.73 7.59 7.59 0 013-1.25 16.39 16.39 0 012.92-.29 12.44 12.44 0 016.18 1.58q2.83 1.58 3.31 5.61a16.19 16.19 0 001.15 5 12.29 12.29 0 003.26 4.79 18.84 18.84 0 006 3.55 24.82 24.82 0 008.91 1.44 17.63 17.63 0 002.92-.29q1.68-.29 3.4-.72a26.23 26.23 0 003.4-1.1 21.35 21.35 0 002.83-1.34 12.52 12.52 0 003.26-2.78 19.49 19.49 0 002.3-3.5 31.82 31.82 0 001.63-3.74q.67-1.87 1.15-3.4a6.72 6.72 0 011.58-2.68 11.32 11.32 0 012.39-1.92 11.05 11.05 0 012.68-1.15 9.67 9.67 0 012.54-.38 10.4 10.4 0 016.52 1.92q2.51 1.91 2.51 6.99zm200.35 127.59q0 2.3-3 6.56t-10.78 4.26q-9.49 0-17-16.14a139.15 139.15 0 01-10.73-35.31q-1.15-6.42-3.07-14.95a53.52 53.52 0 01-.86-6q-.48-4.79-.77-5.17-1.53 3.07-3.26 7a367.86 367.86 0 01-26.25 48.48l-1.15 2.2a9.39 9.39 0 01-1.44 1.92Q1031.18 626 1023.62 626q-10.83 0-10.83-9.68 0-7.47 10.16-19.45 12.36-14.95 31.91-52.41l13.61-26.06q2.11-3.83 7.38-3.83a19 19 0 017.43 1.87q4.26 1.87 5.65 4.46a34.29 34.29 0 012.64 8.43q6.9 32.39 12.46 51.07t12.15 23.6q5.17 2.68 5.17 7.86zM1222.92 588q0 10-16.77 23.81a57.87 57.87 0 01-37.85 13.85q-16.19 0-25.49-10.21t-9.29-28.41q0-26.83 19-50.31t40.48-23.42q10.73 0 17.25 6.8a22.61 22.61 0 016.52 16.19q0 16.67-16 31.76t-41 20.84a3.28 3.28 0 00-2.87 3.45q0 4.6 4.07 8.77t10.88 4.17q19.26 0 38.23-19.83 3.64-3.83 7.09-3.83 5.75 0 5.75 6.37zm-64.29-17a58.13 58.13 0 0026.68-12.94q11.55-9.87 11.55-17.92a8.1 8.1 0 00-1.77-5.32 5.62 5.62 0 00-4.55-2.16q-8.34 0-18.49 12.26a63.63 63.63 0 00-13.43 26.17zm102.14 28.64q0 2.68 3.07 4.74a10.15 10.15 0 005.46 2.06q16.77 0 28.94-5.75 7.28-3.64 10.92-3.64 6.32 0 6.32 6.71 0 9-14.42 15.19t-35.31 6.18q-12.65 0-21.66-7.33a23.09 23.09 0 01-9-18.73q0-9.68 6.32-19.21t31.43-22.86q11.59-6 15.09-9t3.5-6a4.92 4.92 0 00-2.06-4.07 6.19 6.19 0 00-3.11-1.58q-6 0-25.3 8.24a9.94 9.94 0 01-3.93.86q-9.1 0-9.1-6 0-10.06 16-16.43t27.6-6.37a26.6 26.6 0 0117.92 6.71q7.76 6.71 7.76 16.19 0 8.53-6.08 16.34T1285 574.63q-14 7.76-19.12 13.46t-5.11 11.55zm123.89-27.5a23.15 23.15 0 018 3.74q3.74 2.68 8.91 9.77 10 13.8 15.71 18.11a20.47 20.47 0 0012.55 4.31q7.09 0 7.09 4.41 0 4.22-4.89 8.53t-15.43 4.31q-16.19 0-32.87-26.73-9.68-15.71-16.19-15.71a23.29 23.29 0 00-4.65 1.25 16.08 16.08 0 00-4.93 2.25q-1.15 1-1.92 12.22l-1.05 17.63a10.48 10.48 0 01-3.55 7.43 11.79 11.79 0 01-8.34 3.11q-5.27 0-8.24-2.92t-3-5.89q0-3.64 2.4-15.62 5.75-30.18 9.1-73.78a16.45 16.45 0 014.6-10.16 13 13 0 019.87-4.6 7.92 7.92 0 016.52 3.35 12.36 12.36 0 012.59 7.76 22.58 22.58 0 01-1.15 7 164.1 164.1 0 00-4.07 16.86 180.7 180.7 0 00-3.21 19.45q11.4-3.45 17.73-9.58T1392 539q7.86-11.11 14.76-16.43a24.25 24.25 0 0115.14-5.32 11.86 11.86 0 018.38 3.78q3.88 3.79 3.88 8a6.49 6.49 0 01-2.16 5.32q-2.16 1.77-7.52 3.4-6.8 2-14.56 10.92-16.06 18.49-25.26 23.47zm155.23.29a76.53 76.53 0 01-24.39 37.8q-18 15.38-35.88 15.38a29.85 29.85 0 01-23.38-10.4q-9.2-10.4-9.2-25.54Q1447 565 1463.9 541t40.91-24q16.39 0 26.54 12.12t10.16 28.89a62.76 62.76 0 01-1.63 14.28zm-49.83-30.28q-6.71 5.94-13.13 19a58.71 58.71 0 00-6.42 26.16q0 8 2.92 13.13t7.71 5.17q11.88 0 24.72-14.09t12.84-31.62q0-9.87-4.17-16.24a13.17 13.17 0 00-11.64-6.37 19 19 0 00-12.74 4.89zm80.11 77.04q-10.54 0-10.54-11.69 0-4.41 4.31-10.16t9.29-5.75q3.26 0 8.14 3.16t4.89 5.37l-1 5.94a13.1 13.1 0 01-6.23 9.73q-5.32 3.4-8.86 3.4zm13.61-44.08q-9.58 0-14.85-3.93a131.63 131.63 0 012.68-38.42q4.69-21.37 4.7-32 0-1.05 1-8a15 15 0 016.08-10.59q5.08-3.64 8.62-3.64a11.53 11.53 0 017.33 2.83q3.5 2.83 3.5 6.18 0 2.68-3.88 19.88t-7.71 31.67q-4 15-4.22 24.05a24.45 24.45 0 01-3.26 11.97z"/><path class="qcls-1" d="M485.41 262.87q30.91 18.16 42.44 39.49t8.59 42.93q-2.94 21.6-17.42 42.44a185.27 185.27 0 01-35.57 38 261.61 261.61 0 01-46.61 30.17 230.08 230.08 0 01-49.55 18.89 439.59 439.59 0 01-60.34 10.3q-29.93 2.94-49.55 1.47-16.19 24-34.34 46.36a508.67 508.67 0 01-39.25 42.93q-31.4 29.44-67.95 42.44a164.6 164.6 0 01-76.29 8.09q-25-2.94-39.25-13.25t-18.4-23.3a40 40 0 01.74-26.49Q7.56 549.88 20.8 541t34.1-11q20.85-2.21 48.81 7.11 7.84 2.94 6.38 5.89t-7.85.49q-19.63-7.36-34.1-5.4t-23.55 9.32a36.1 36.1 0 00-12.27 18.15 35.61 35.61 0 000 21.1q3.19 10.3 12.76 17.66t26.74 8.34q32.86 1.47 60.34-12.76t52.49-38.27q24-23.55 44.15-58.38t41-74.08q20.85-39.25 44.64-79.48a485.56 485.56 0 0155.19-75.55q6.86-7.36 13-14.23t13-13.25q-21.1-2.94-43.17-3.92t-43.17-.25q-21.1.74-40.47 2.7t-34.59 4.91a434.64 434.64 0 00-51.76 13.74 287.6 287.6 0 00-54.7 24.29 192.63 192.63 0 00-45.38 35.81 90.76 90.76 0 00-23.79 48.32 56 56 0 001.23 24 55.27 55.27 0 009.81 19.62 48.83 48.83 0 0016.19 13.25 49.75 49.75 0 0020.85 5.4 53.78 53.78 0 0023.06-4.17 82.61 82.61 0 0021.1-12.76 93.24 93.24 0 0017.42-19.13 101.59 101.59 0 0012-23.3q1-5.39 3.93-5.15t2.94 5.64q0 16.68-7.36 29.68a70.16 70.16 0 01-19.13 21.83 84.49 84.49 0 01-26.25 13.25 87.42 87.42 0 01-28.7 3.92A90.64 90.64 0 0177.47 439a66.75 66.75 0 01-23.55-14.47A68.89 68.89 0 0138 401q-5.89-14-4.91-32.62a85.1 85.1 0 0111.28-39.74 126.18 126.18 0 0126.74-31.89 185.57 185.57 0 0137-24.78 335.33 335.33 0 0142.44-18.15 420.18 420.18 0 0142.93-12.51q21.09-4.9 38.76-7.36a760.23 760.23 0 0187.08-7.11 397.09 397.09 0 0189.54 7.61 182.28 182.28 0 0116.93-11.53 106.75 106.75 0 0119.87-9.08q11.77-4.9 12.76-1.47t-7.85 8.83a114.84 114.84 0 00-9.81 7.11 144.24 144.24 0 00-12.27 11 222 222 0 0156.92 23.56zm-11.28 10.3a135.71 135.71 0 00-25.27-12.76 253.68 253.68 0 00-29.68-9.32q-18.65 26.49-35.32 54.7T351 362.71q-16.19 28.7-32.63 57.4t-34.1 56.17a193.77 193.77 0 0041.21-2.7 386.58 386.58 0 0046.1-10.58 221.33 221.33 0 0049.8-21.59 229 229 0 0041.21-30.66 171.25 171.25 0 0029.19-35.57q11.28-18.64 13.74-37a65.36 65.36 0 00-4.91-35.32q-7.36-16.93-26.49-29.69z"/><path d="M187.19 370.33c.5 0-2.75-2.11-2.34-2.91 2.61-5.15 7.69-14 7.69-19.86 0-3.55-2.34-8.18-2.34-8.18a4.06 4.06 0 01.23-3.13l23.64-25.46-1.24-6.47a2.12 2.12 0 011.9-2.52l5-.43 24.48-39.54s-5.73-70.95 5.57-93.55c0 8.18 1.75 23.36 5.26 27.45-.58-12.26-.11-27.27 4-36.79s39.71-31.53 39.71-31.53l3.5 27.45s.58-30.95 13.52-39.9 47.07-30.13 47.07-30.13L349 124.49s20.2-40.08 27-47.19 42.43-25.8 42.43-25.8l-3.5 15.18S420.19 55 425 49.05C429 44 457 34 457 34s.58 9.09-1.17 13.42-6.92 11.68-6.92 11.68 24.93-24.45 32.57-28.87 45.19-15.06 45.19-15.06L519 28.72S533.34 16.06 540.48 13s29.87-5.3 29.87-5.3L562.17 20s15.31-16.1 43.56-18C628.07.49 658.66.12 670.47.11c4.32 0 5-.49 3.73.58 0 0-14.42 14.6-20.35 16.93S627 22.88 627 22.88l20.17-.19s-24.75 15.38-29.51 17.13-53.14 8.76-53.14 8.76l44.38-1.75s-39.18 27.4-42.7 28.59-37.88 4.7-37.88 4.7 19.45.74 22.82 1-40.43 30.58-53.77 34.67c-9.66 1.72-18.19-4.09-39.21 1.17 9.93 1.17 30.84 5.59 30.84 5.59s-22.19 22.07-31.92 24.77c-5.23 1.45-12.93-2.34-23.45 1.17a70.21 70.21 0 0113.52 5.84s-14.69 16.93-26.95 21.61c-12.26 2.92-45 2.34-45 2.34s3 7 36.88 5.26c-2.34 8.18-14.45 18.74-22.28 21-10 2.92-33.87 7.59-53.72 9.34 8.18 3.5 48.33-.68 48.33-.68s-39.57 46.23-58.9 49.17c-11.53.56-34.25-2.37-34.25-2.37a50.05 50.05 0 0019.22 8.19c-9.93 3.5-46.07 3.41-46.07 3.41a2.55 2.55 0 00-1.92 1.11l-25.84 38.12 1.81 6.12a2.18 2.18 0 01-1.95 2.8l-5.46.4-12.89 32.94a1.78 1.78 0 01-1.44 1.2s-5.63-1.68-8.44-.27c-3.5 1.75-4.13 3.37-5.84 5.26-1.42 1.56-7.51 9.56-10 12.85-.44.58-3-.07-3.5-.58l20.44-32.12c8.73.55 4.09-8.18 4.09-8.18s-9.54-.39-5.84 7c-1.37 1.9-20.8 32.08-20.44 32.08z"/><path class="qcls-3" d="M597.55 21.72C354.92 90.33 286 208.87 232.59 294.42c-2.34 4.09 2.34 7 5.26 2.34C290.69 222.3 345.58 112.52 597.84 22M236.25 314.85c-1.75-1.17-12.85-6.42-15.3-7.52a1.47 1.47 0 00-1.82.37l-.4.72c-.51.69.11 1.53.87 1.92l13.86 7.77c2.79 1.41 4.85-1.88 2.79-3.26zM217 348.14c1.74-3.16 9-20.86 11.09-25.11 1.17-2.34 1.17-2.92.58-3.5-.92-.92-2.92-1.75-4.2.79l-11.67 25.05c-2.12 5.06 2.13 6.49 4.2 2.77z"/></g></g></svg><svg viewBox="0 0 586.82 568.77" id="logo-white" xmlns="http://www.w3.org/2000/svg"><defs><linearGradient id="rБезымянный_градиент_2" x1="344.65" y1="14.79" x2="143.14" y2="177.91" gradientUnits="userSpaceOnUse"><stop offset="0" stop-color="#9b9b9b"/><stop offset=".13" stop-color="#8b8b91"/><stop offset="1" stop-color="#fff"/></linearGradient><style>.rcls-1{fill:#f2f2f2}.rcls-3{fill:#060942}</style></defs><g id="rСлой_2" data-name="Слой 2"><g id="rСлой_1-2" data-name="Слой 1"><path class="rcls-1" d="M226.36 401.52Q208 416.06 198 416.06a12 12 0 01-10.19-5.12 20.29 20.29 0 01-3.75-12.33q0-9.23 3.75-23.11t6.29-16a10 10 0 016.7-2.14 5 5 0 014.29 2.38 9.42 9.42 0 011.67 5.54q0 .89-4.29 10.07-5.24 11.2-5.24 19.3a13.55 13.55 0 001.28 6.31q1.28 2.44 2.65 2.44a17.74 17.74 0 006.73-1.64 44.28 44.28 0 009.44-6q5.57-4.38 7.12-6.58a18.64 18.64 0 002.53-5.81q1-3.6 1.52-15.4a71 71 0 01.68-8.7 6 6 0 012.12-3.28 6.88 6.88 0 014.65-1.49q3.93 0 5.57 1.67t1.64 7.86q0 8.4-3 35.8t-11 39.7q-8 12.3-21.47 12.3a35.81 35.81 0 01-21.06-6.31q-9-6.31-9-11.2a6.72 6.72 0 011.4-4.47 4.55 4.55 0 013.66-1.67 4 4 0 013.28 1.67q8.46 9.83 20.61 9.83 15.42-.03 19.78-38.16zm47.42 20.55q-9.83 0-15-5.36t-5.12-14.89q0-15 12.21-32.47t23.95-17.45q5.66 0 9.65 5.63a20 20 0 014 11.71q0 5.72-2.12 7.71a6.12 6.12 0 01-4.08 2q-5.78 0-6.73-8-.71-5.84-2.92-5.84-4.65 0-12.27 13.22t-7.62 23.17q0 8 8.7 8 9.59 0 19.36-6.79 4.59-3.28 7.27-3.28 3.28 0 3.28 3.28 0 4.59-10.51 11.94a37.92 37.92 0 01-22.05 7.42zm61.59 0q-9.83 0-15-5.36t-5.12-14.89q0-15 12.21-32.47t23.95-17.45q5.66 0 9.65 5.63a20 20 0 014 11.71q0 5.72-2.12 7.71a6.12 6.12 0 01-4.08 2q-5.78 0-6.73-8-.71-5.84-2.92-5.84-4.65 0-12.27 13.22t-7.62 23.17q0 8 8.7 8 9.59 0 19.36-6.79 4.59-3.28 7.27-3.28 3.28 0 3.28 3.28 0 4.59-10.51 11.94a37.92 37.92 0 01-22.05 7.42zm75.72-33.65a14.39 14.39 0 015 2.32 28 28 0 015.54 6.08q6.19 8.58 9.77 11.26a12.73 12.73 0 007.8 2.68q4.41 0 4.41 2.74t-3 5.3q-3 2.68-9.59 2.68-10.07 0-20.43-16.62-6-9.77-10.07-9.77a14.48 14.48 0 00-2.89.77 10 10 0 00-3.07 1.4q-.71.63-1.19 7.6l-.66 11a6.51 6.51 0 01-2.2 4.62 7.33 7.33 0 01-5.18 1.94 7 7 0 01-5.12-1.82 5.22 5.22 0 01-1.85-3.66 65.16 65.16 0 011.49-9.71 424.51 424.51 0 005.66-45.87 10.23 10.23 0 012.86-6.31 8.08 8.08 0 016.14-2.86 4.92 4.92 0 014.05 2.08 7.68 7.68 0 011.61 4.83 14 14 0 01-.71 4.35 102.11 102.11 0 00-2.53 10.48 111.9 111.9 0 00-2 12.09 26.64 26.64 0 0011-6 86.93 86.93 0 009.77-12.21 47.62 47.62 0 019.17-10.22 15.07 15.07 0 019.41-3.31 7.37 7.37 0 015.21 2.35 6.93 6.93 0 012.41 5 4 4 0 01-1.34 3.31 14.22 14.22 0 01-4.68 2.12q-4.23 1.25-9.05 6.79-10.02 11.47-15.74 14.57zm82.14 8.58A55.25 55.25 0 01480 413.55q-7.54 6.14-15.28 6.14-4.59 0-9.26-4.83t-4.7-14.86q0-7.09 3.57-21.39 3.1-11.79 3.1-17.93 2.38-5 7.45-5a7 7 0 015.51 2.29 7 7 0 012.05 4.62q0 4.23-3 12a115.64 115.64 0 00-3.72 13.13q-2 8.49-2 10.87 0 7.92 3.28 7.92 5.18 0 14-9.95t11.5-20.37q2.68-10.19 4.77-13.34a6.67 6.67 0 015.9-3.16q6.19 0 6.2 6.91a16.58 16.58 0 01-1 4.05 74.93 74.93 0 00-3.51 23.77q0 15.49 5.24 18.53a2.92 2.92 0 011.73 2.5q0 2.14-3 4.05a11 11 0 01-5.78 1.91q-4.71 0-7.24-6.64T493.23 397zm74.11 0a55.25 55.25 0 01-13.25 16.56q-7.54 6.14-15.28 6.14-4.59 0-9.26-4.83T524.87 400q0-7.09 3.57-21.39 3.1-11.79 3.1-17.93 2.38-5 7.45-5a7 7 0 015.51 2.29 7 7 0 012.06 4.62q0 4.23-3 12a115.81 115.81 0 00-3.72 13.13q-2 8.49-2 10.87 0 7.92 3.28 7.92 5.18 0 14-9.95t11.5-20.37q2.68-10.19 4.77-13.34a6.67 6.67 0 015.9-3.16q6.19 0 6.2 6.91a16.58 16.58 0 01-1 4.05 74.93 74.93 0 00-3.49 23.84q0 15.51 5.2 18.51a2.92 2.92 0 011.73 2.5q0 2.14-3 4.05a11 11 0 01-5.78 1.91q-4.71 0-7.24-6.64T567.34 397zm19.48-66.78a8.76 8.76 0 01-.63 2.86 22.43 22.43 0 01-1.76 3.66 25 25 0 01-2.77 3.81 20.68 20.68 0 01-3.66 3.31h.06a20.23 20.23 0 01-3.43 1.79 30.51 30.51 0 01-4.2 1.4 42 42 0 01-4.47.89 29.59 29.59 0 01-4.23.33 27.39 27.39 0 01-6.55-.77 25 25 0 01-5.84-2.2 22.05 22.05 0 01-4.79-3.43 20.51 20.51 0 01-3.54-4.38 14.5 14.5 0 01-.8-1.82q-.39-1-.68-2a17.23 17.23 0 01-.45-1.76 7 7 0 01-.15-1 6.35 6.35 0 01.57-2.89 4.52 4.52 0 011.43-1.7 4.72 4.72 0 011.85-.77 10.19 10.19 0 011.82-.18 7.74 7.74 0 013.84 1 4.27 4.27 0 012.06 3.49 10.07 10.07 0 00.71 3.1 7.64 7.64 0 002 3 11.71 11.71 0 003.75 2.2 15.43 15.43 0 005.54.89 11 11 0 001.82-.18q1-.18 2.11-.45a16.3 16.3 0 002.11-.68 13.27 13.27 0 001.76-.83 7.79 7.79 0 002-1.73 12.12 12.12 0 001.43-2.17 19.78 19.78 0 001-2.32q.42-1.16.71-2.11a4.18 4.18 0 011-1.67 7 7 0 011.49-1.19 6.87 6.87 0 011.67-.71 6 6 0 011.58-.24 6.47 6.47 0 014.05 1.19q1.59 1.1 1.59 4.26zM198.36 559.54q0 1.43-1.88 4.08t-6.7 2.65q-5.9 0-10.54-10a86.51 86.51 0 01-6.67-22q-.71-4-1.91-9.29a33.28 33.28 0 01-.54-3.75 15.47 15.47 0 00-.48-3.22q-1 1.91-2 4.35a228.7 228.7 0 01-16.32 30.14l-.71 1.37a5.84 5.84 0 01-.89 1.19q-7.39 13.22-12.09 13.22-6.73 0-6.73-6 0-4.65 6.31-12.09 7.68-9.29 19.84-32.58l8.46-16.2a4.79 4.79 0 014.59-2.38 11.84 11.84 0 014.62 1.16 7 7 0 013.51 2.77 21.32 21.32 0 011.64 5.24q4.29 20.14 7.74 31.75t7.57 14.65a5.27 5.27 0 013.22 4.88zm63.15-14.84q0 6.2-10.42 14.8a36 36 0 01-23.53 8.61q-10.07 0-15.85-6.34t-5.78-17.66q0-16.68 11.79-31.27t25.2-14.59a14.16 14.16 0 0114.77 14.3q0 10.37-9.95 19.75t-25.5 13a2 2 0 00-1.79 2.14 7.76 7.76 0 002.53 5.45 9 9 0 006.76 2.59q12 0 23.77-12.33 2.26-2.38 4.41-2.38 3.59-.06 3.59 3.93zm-40-10.54a36.14 36.14 0 0016.59-8q7.2-6.16 7.2-11.16a5 5 0 00-1.1-3.31 3.5 3.5 0 00-2.83-1.34q-5.18 0-11.5 7.62a39.56 39.56 0 00-8.34 16.19zM285 551.91a3.6 3.6 0 001.91 2.95 6.31 6.31 0 003.4 1.28 41.78 41.78 0 0018-3.57q4.53-2.26 6.79-2.26 3.93 0 3.93 4.17 0 5.6-9 9.44t-22 3.84a20.65 20.65 0 01-13.46-4.56 14.35 14.35 0 01-5.6-11.65 21.44 21.44 0 014.03-11.94q3.93-5.93 19.54-14.21a59.82 59.82 0 009.38-5.6 5.09 5.09 0 002.17-3.75 3.06 3.06 0 00-1.28-2.53 3.85 3.85 0 00-1.94-1q-3.75 0-15.73 5.12a6.18 6.18 0 01-2.44.54q-5.66 0-5.66-3.75 0-6.25 9.95-10.22t17.16-4a16.54 16.54 0 0111.14 4.17 12.86 12.86 0 014.83 10.07 16.31 16.31 0 01-3.78 10.16q-3.79 4.85-16.23 11.71-8.7 4.83-11.88 8.37a10.77 10.77 0 00-3.23 7.22zm77.06-17.09a14.39 14.39 0 015 2.32 28 28 0 015.54 6.08q6.19 8.58 9.77 11.26a12.73 12.73 0 007.8 2.68q4.41 0 4.41 2.74t-3 5.3q-3 2.68-9.59 2.68-10.07 0-20.43-16.62-6-9.77-10.07-9.77a14.48 14.48 0 00-2.89.77 10 10 0 00-3.07 1.4q-.71.63-1.19 7.6l-.66 11a6.51 6.51 0 01-2.2 4.62 7.33 7.33 0 01-5.18 1.94 7 7 0 01-5.12-1.82 5.23 5.23 0 01-1.85-3.66 65.16 65.16 0 011.49-9.71 424.51 424.51 0 005.66-45.87 10.23 10.23 0 012.86-6.31 8.08 8.08 0 016.14-2.86 4.92 4.92 0 014.05 2.08 7.68 7.68 0 011.61 4.83 14 14 0 01-.71 4.35 102 102 0 00-2.53 10.48 112.34 112.34 0 00-2 12.09 26.64 26.64 0 0011-6 86.93 86.93 0 009.77-12.21 47.65 47.65 0 019.15-10.21 15.08 15.08 0 019.41-3.31 7.37 7.37 0 015.21 2.35 6.94 6.94 0 012.41 5 4 4 0 01-1.34 3.31 14.27 14.27 0 01-4.68 2.11q-4.23 1.25-9.05 6.79-10 11.47-15.72 14.57zm96.5.18a47.58 47.58 0 01-15.16 23.5q-11.17 9.56-22.31 9.56a18.55 18.55 0 01-14.54-6.46 23.1 23.1 0 01-5.72-15.88q0-15.37 10.48-30.26t25.44-14.89a20.5 20.5 0 0116.5 7.54 27.07 27.07 0 016.31 18 39 39 0 01-1 8.88zm-31-18.82q-4.17 3.69-8.16 11.79a36.5 36.5 0 00-4 16.26 16.42 16.42 0 001.82 8.16q1.82 3.22 4.79 3.22 7.39 0 15.37-8.76t8-19.66a18.11 18.11 0 00-2.59-10.1 8.19 8.19 0 00-7.24-4 11.8 11.8 0 00-7.92 3zm49.83 47.88q-6.55 0-6.55-7.27 0-2.74 2.68-6.31t5.78-3.57a10 10 0 015.06 2q3 2 3 3.34l-.6 3.69a8.14 8.14 0 01-3.87 6q-3.3 2.12-5.5 2.12zm8.46-27.4q-6 0-9.23-2.44a81.83 81.83 0 011.67-23.89q2.92-13.28 2.92-19.9 0-.65.63-5a9.34 9.34 0 013.78-6.58q3.16-2.26 5.36-2.26a7.17 7.17 0 014.56 1.76 5 5 0 012.17 3.84q0 1.67-2.41 12.36t-4.8 19.69a66.78 66.78 0 00-2.62 15 15.2 15.2 0 01-2.03 7.42zM312.07 169q19.87 11.67 27.28 25.39t5.52 27.6q-1.89 13.88-11.2 27.28a119.11 119.11 0 01-22.87 24.44 168.19 168.19 0 01-30 19.4 147.92 147.92 0 01-31.8 12.15 282.62 282.62 0 01-38.8 6.62q-19.24 1.89-31.86.95-10.41 15.46-22.08 29.81A327 327 0 01131 370.23q-20.19 18.93-43.68 27.28a105.83 105.83 0 01-49 5.2q-16.09-1.89-25.23-8.52t-11.83-15a25.68 25.68 0 01.47-17 29 29 0 0111.67-14.35q8.52-5.68 21.92-7.1t31.38 4.57q5 1.89 4.1 3.78t-5 .31q-12.62-4.73-21.92-3.47t-15.14 6a23.21 23.21 0 00-7.89 11.67 22.9 22.9 0 000 13.56A22.66 22.66 0 0029 388.53q6.15 4.73 17.19 5.36a75.56 75.56 0 0038.8-8.2 145.28 145.28 0 0033.75-24.6q15.45-15.14 28.39-37.53t26.34-47.63q13.4-25.23 28.7-51.1a312.17 312.17 0 0135.48-48.57q4.41-4.73 8.36-9.15t8.36-8.52q-13.56-1.89-27.76-2.52t-27.76-.16q-13.56.47-26 1.73t-22.24 3.15a279.43 279.43 0 00-33.28 8.83 184.9 184.9 0 00-35.17 15.61 123.84 123.84 0 00-29.18 23 58.35 58.35 0 00-15.3 31.07 36 36 0 00.79 15.46 35.53 35.53 0 006.31 12.62 31.4 31.4 0 0010.41 8.52 32 32 0 0013.41 3.47 34.57 34.57 0 0014.82-2.68A53.11 53.11 0 0097 268.51a60 60 0 0011.2-12.3 65.31 65.31 0 007.73-15q.63-3.47 2.52-3.31t1.89 3.63a38 38 0 01-4.73 19.08 45.1 45.1 0 01-12.3 14 54.32 54.32 0 01-16.87 8.52 56.2 56.2 0 01-18.45 2.52 58.27 58.27 0 01-18.14-3.47 42.92 42.92 0 01-15.14-9.3 44.29 44.29 0 01-10.25-15.14q-3.79-9-3.15-21a54.71 54.71 0 017.25-25.55 81.12 81.12 0 0117.19-20.5 119.3 119.3 0 0123.81-15.93 215.59 215.59 0 0127.24-11.59 270.13 270.13 0 0127.6-8q13.6-3.17 24.92-4.78a488.76 488.76 0 0156-4.57 255.29 255.29 0 0157.56 4.89 117.19 117.19 0 0110.88-7.41 68.63 68.63 0 0112.77-5.84q7.57-3.15 8.2-.95t-5 5.68a73.83 73.83 0 00-6.31 4.57 92.73 92.73 0 00-7.89 7.1A142.74 142.74 0 01312.07 169zm-7.25 6.62a87.25 87.25 0 00-16.24-8.2 163.09 163.09 0 00-19.08-6q-12 17-22.71 35.17t-21.13 36.59q-10.41 18.45-21 36.9t-21.92 36.12a124.57 124.57 0 0026.49-1.74 248.54 248.54 0 0029.65-6.78 142.3 142.3 0 0032-13.88 147.21 147.21 0 0026.52-19.7 110.1 110.1 0 0018.77-22.87 61.84 61.84 0 008.83-23.81 42 42 0 00-3.15-22.71q-4.73-10.89-17.03-19.09z"/><path d="M120.35 238.09c.32 0-1.77-1.36-1.51-1.87 1.68-3.31 4.94-9 4.94-12.77a14.58 14.58 0 00-1.5-5.26 2.61 2.61 0 01.15-2l15.2-16.37-.79-4.16a1.37 1.37 0 011.22-1.62l3.2-.28L157 168.33s-3.68-45.61 3.58-60.14c0 5.26 1.13 15 3.38 17.64-.38-7.88-.07-17.54 2.57-23.65s25.53-20.27 25.53-20.27l2.25 17.64s.38-19.9 8.69-25.65 30.26-19.37 30.26-19.37L224.4 80s13-25.77 17.34-30.34S269 33.11 269 33.11l-2.25 9.76s3.38-7.51 6.45-11.33c2.6-3.24 20.58-9.68 20.58-9.68s.38 5.85-.75 8.63a53 53 0 01-4.44 7.51s16-15.72 20.94-18.56 29.05-9.68 29.05-9.68l-4.94 8.72s9.25-8.14 13.83-10.14S366.68 5 366.68 5l-5.26 7.88s9.85-10.35 28-11.56c14.36-1 34-1.2 41.62-1.2 2.77 0 3.22-.31 2.4.37 0 0-9.27 9.39-13.08 10.89s-17.27 3.38-17.27 3.38l13-.12s-15.91 9.88-19 11-34.16 5.63-34.16 5.63l28.53-1.13S366.27 47.72 364 48.48s-24.36 3-24.36 3 12.51.48 14.67.61-26 19.66-34.57 22.29c-6.21 1.1-11.69-2.63-25.21.75 6.38.75 19.83 3.59 19.83 3.59s-14.26 14.19-20.52 15.93c-3.36.93-8.32-1.5-15.07.75a45.14 45.14 0 018.69 3.75s-9.44 10.89-17.33 13.89c-7.88 1.88-28.91 1.5-28.91 1.5s1.93 4.51 23.71 3.38c-1.5 5.26-9.29 12-14.32 13.52-6.44 1.88-21.77 4.88-34.54 6 5.26 2.25 31.07-.44 31.07-.44s-25.44 29.72-37.87 31.61c-7.41.36-22-1.53-22-1.53a32.18 32.18 0 0012.36 5.27c-6.38 2.25-29.62 2.19-29.62 2.19a1.64 1.64 0 00-1.24.72l-16.61 24.51 1.17 3.94a1.4 1.4 0 01-1.25 1.8l-3.51.26-8.3 21.23a1.14 1.14 0 01-.92.77s-3.62-1.08-5.43-.18c-2.25 1.13-2.65 2.16-3.75 3.38-.91 1-4.83 6.15-6.44 8.26-.28.37-1.92 0-2.25-.38l13.14-20.65c5.61.35 2.63-5.26 2.63-5.26s-6.14-.25-3.75 4.51c-.89 1.24-13.38 20.64-13.15 20.64z"/><path class="rcls-3" d="M384.17 14c-156 44.11-200.29 120.32-234.64 175.32-1.5 2.63 1.5 4.51 3.38 1.5 34-47.87 69.26-118.44 231.45-176.63M151.88 202.42c-1.13-.75-8.26-4.13-9.84-4.84a.94.94 0 00-1.17.24l-.26.47c-.33.44.07 1 .56 1.24l8.91 5c1.8.89 3.13-1.22 1.8-2.11zm-12.39 21.4c1.12-2 5.77-13.41 7.13-16.14.75-1.5.75-1.88.38-2.25a1.56 1.56 0 00-2.7.51L136.81 222c-1.36 3.29 1.37 4.21 2.68 1.82z"/></g></g></svg><svg viewBox="0 0 17 17" id="tel" xmlns="http://www.w3.org/2000/svg"><path d="M13.883 14.5a8.094 8.094 0 00.7-.033v-3.9L11.25 9.9l-1.933 1.933a12.435 12.435 0 01-2.326-1.816c-.705-.7-1.291-1.45-1.758-2.25l1.9-1.917-.616-3.35h-3.9a1.781 1.781 0 00-.034.35v.35c0 1.433.32 2.83.959 4.191a12.82 12.82 0 002.533 3.626 12.491 12.491 0 003.616 2.533c1.362.633 2.759.95 4.192.95z"/></svg><svg viewBox="0 0 101 17" id="zig-zag" xmlns="http://www.w3.org/2000/svg"><path d="M26.26 4.323L38.347 17 50.523 4.323 62.654 17 74.74 4.323 86.87 17 101 2.234 98.816 0 86.87 12.483 74.925 0l-.186.194L74.6 0 62.655 12.483 50.663 0l-.14.194L50.337 0 38.346 12.483 26.4 0l-.14.194L26.076 0 14.13 12.483 2.185 0 0 2.234 14.13 17 26.26 4.323z"/></svg></svg>